<svg version="1.2" xmlns="http://www.w3.org/2000/svg" viewBox="0 0 150 153" width="150" height="153"><defs><linearGradient id="P" gradientUnits="userSpaceOnUse"/><linearGradient id="g1" x1="70.8" y1="12.9" x2="75" y2="145.4" href="#P"><stop stop-color="#ededed"/><stop offset="1" stop-color="#cccccf"/></linearGradient><clipPath clipPathUnits="userSpaceOnUse" id="cp1"><path d="m147.27 76.49c0 19.42-7.62 38.04-21.17 51.77-13.56 13.73-31.95 21.45-51.13 21.45-19.17 0-37.56-7.72-51.12-21.45-13.56-13.73-21.17-32.35-21.17-51.77 0-19.42 7.61-38.05 21.17-51.78 13.56-13.73 31.95-21.44 51.12-21.44 19.18 0 37.57 7.71 51.13 21.44 13.55 13.73 21.17 32.36 21.17 51.78z"/></clipPath><clipPath clipPathUnits="userSpaceOnUse" id="cp2"><path d="m74.97 113.81c-20.38 0-36.85-16.68-36.85-37.32 0-20.64 16.47-37.32 36.85-37.32 20.38 0 36.86 16.68 36.86 37.32 0 20.64-16.48 37.32-36.86 37.32z"/></clipPath><clipPath clipPathUnits="userSpaceOnUse" id="cp3"><path d="m86.4 71.45l1.4-3.26 2.9 1.27-0.46 1.07-1.45-0.63-0.24 0.55 1.45 0.64-0.7 1.63z"/></clipPath><linearGradient id="g2" x1="77.9" y1="-14.1" x2="80" y2="135.9" href="#P"><stop stop-color="#eee"/><stop offset="1" stop-color="#eee" stop-opacity="0"/></linearGradient><linearGradient id="g3" x1="75.5" y1="155.6" x2="75.5" y2="128.2" href="#P"><stop stop-color="#eee"/><stop offset="1" stop-color="#eee" stop-opacity="0"/></linearGradient></defs><style>.a{fill:url(#g1)}.b{fill:#00923f}.c{fill:#f8c300}.d{fill:#28166f}.e{fill:#fff}.f{opacity:.7;fill:url(#g2)}.g{opacity:.7;fill:url(#g3)}</style><path class="a" d="m149.9 76.5c0 42.2-33.5 76.5-74.9 76.5-41.4 0-75-34.3-75-76.5 0-42.3 33.6-76.5 75-76.5 41.4 0 74.9 34.2 74.9 76.5z"/><g clip-path="url(#cp1)"><path class="b" d="m-30.3 1.8h210.6v149.3h-210.6z"/><path class="c" d="m75 20l87.4 56.5-87.4 56.5-87.4-56.5z"/><path class="d" d="m75 113.8c-20.4 0-36.9-16.7-36.9-37.3 0-20.7 16.5-37.3 36.9-37.3 20.4 0 36.8 16.6 36.8 37.3 0 20.6-16.4 37.3-36.8 37.3z"/><g clip-path="url(#cp2)"><path class="e" d="m-35.6 151.1c0-24 9.4-47.1 26.2-64.1 16.8-17 39.6-26.5 63.3-26.5 23.8 0 46.5 9.5 63.3 26.5 16.8 17 26.2 40.1 26.2 64.1h-5.3c0-22.6-8.8-44.3-24.6-60.3-15.8-16-37.2-25-59.6-25-22.3 0-43.7 9-59.5 25-15.8 16-24.7 37.7-24.7 60.3z"/></g><path fill-rule="evenodd" class="b" d="m42.4 65.2c-0.4-0.3-0.6-0.7-0.6-1.2-0.1-0.5 0-0.9 0.3-1.3 0.2-0.4 0.6-0.6 1-0.7 0.4 0 0.9 0.1 1.2 0.4 0.3 0.3 0.5 0.8 0.6 1.2 0.1 0.5-0.1 1-0.3 1.3-0.3 0.4-0.6 0.6-1.1 0.7-0.4 0-0.8-0.1-1.1-0.4zm1.1-0.3q0.3 0 0.6-0.4c0.1-0.2 0.2-0.5 0.1-0.8 0-0.3-0.1-0.6-0.3-0.8q-0.3-0.2-0.7-0.2-0.4 0.1-0.6 0.4c-0.2 0.2-0.2 0.5-0.2 0.8 0 0.3 0.2 0.6 0.4 0.8q0.3 0.3 0.7 0.2z"/><path fill-rule="evenodd" class="b" d="m46.2 61.7l2-0.1c0.3-0.1 0.6 0 0.8 0.2 0.2 0.2 0.4 0.5 0.4 0.8 0 0.3-0.1 0.6-0.3 0.8-0.2 0.2-0.4 0.4-0.7 0.4l-1.4 0.1 0.1 1.3-0.7 0.1zm0.7 1.5l1.4-0.1q0.1 0 0.3-0.2 0.1-0.1 0.1-0.3 0-0.2-0.2-0.3-0.1-0.1-0.3-0.1l-1.4 0.1z"/><path class="b" d="m48.8 65.1c-0.1-0.5-0.1-1.6-1.2-1.6h0.9c0.8-0.1 0.8 1 0.9 1.5"/><path fill-rule="evenodd" class="b" d="m50.8 61.4h1.6q0.3 0 0.6 0.1 0.3 0.1 0.5 0.3 0.2 0.2 0.3 0.5 0.2 0.3 0.2 0.6v0.5q0 0.3-0.1 0.6-0.1 0.3-0.3 0.5-0.2 0.2-0.5 0.3-0.3 0.1-0.6 0.1l-1.6 0.1zm0.7 2.9l0.9-0.1q0.2 0 0.4 0 0.1-0.1 0.3-0.3 0.1-0.1 0.2-0.3 0-0.1 0-0.3v-0.3q0-0.2 0-0.4-0.1-0.2-0.3-0.3-0.1-0.2-0.3-0.2-0.1-0.1-0.3-0.1h-1z"/><path class="b" d="m55.4 61.4l3 0.1v0.6h-2.4v0.7h2v0.7l-2-0.1-0.1 0.9 2.6 0.1v0.6l-3.2-0.1z"/><path class="b" d="m60.1 61.6l0.8 0.1 0.5 2.5 0.9-2.4 0.9 0.1-0.3 3.5h-0.6l0.2-2.5-0.9 2.4-0.5-0.1-0.5-2.5-0.2 2.5-0.6-0.1z"/><path class="b" d="m67.6 62.8l2.5 0.4-0.1 0.6-1.9-0.3-0.1 0.6 1.6 0.2-0.1 0.6-1.6-0.2-0.2 0.8 2 0.3-0.1 0.6-2.6-0.4z"/><path fill-rule="evenodd" class="b" d="m74.6 63.9l2 0.5c0.2 0 0.5 0.2 0.6 0.5 0.2 0.2 0.2 0.5 0.2 0.8-0.1 0.3-0.3 0.6-0.6 0.7-0.2 0.2-0.5 0.2-0.8 0.1l-1.3-0.3-0.4 1.2-0.6-0.1zm0.2 1.7l1.3 0.3q0.2 0 0.3 0 0.2-0.1 0.3-0.3 0-0.2-0.1-0.4-0.1-0.1-0.3-0.2l-1.3-0.3z"/><path fill-rule="evenodd" class="b" d="m79.1 65.1l1.9 0.6c0.3 0.1 0.5 0.3 0.7 0.5 0.1 0.3 0.1 0.6 0 0.9 0 0.3-0.2 0.5-0.5 0.6-0.3 0.2-0.6 0.2-0.8 0.1l-1.4-0.4-0.4 1.2-0.6-0.2zm0.1 1.7l1.3 0.4q0.2 0.1 0.3 0 0.2-0.1 0.3-0.3 0-0.1-0.1-0.3-0.1-0.2-0.2-0.2l-1.3-0.4z"/><path class="b" d="m80.3 69.2c0.1-0.5 0.5-1.6-0.6-1.9l0.9 0.3c0.7 0.2 0.4 1.3 0.2 1.8"/><path fill-rule="evenodd" class="b" d="m82.9 69.5c-0.2-0.4-0.2-0.9 0-1.3 0.1-0.5 0.4-0.8 0.8-1 0.4-0.3 0.9-0.3 1.3-0.1 0.3 0.1 0.7 0.4 0.8 0.8 0.2 0.5 0.2 0.9 0 1.4-0.1 0.4-0.5 0.8-0.9 1-0.3 0.2-0.8 0.2-1.2 0.1-0.4-0.2-0.7-0.5-0.8-0.9zm1.1 0.3q0.3 0.1 0.7-0.1c0.2-0.1 0.4-0.4 0.5-0.6 0.1-0.3 0.1-0.6 0-0.9q-0.1-0.4-0.5-0.5-0.3-0.1-0.7 0.1c-0.2 0.1-0.4 0.3-0.5 0.6-0.1 0.3-0.1 0.6-0.1 0.8q0.2 0.4 0.6 0.6z"/><g clip-path="url(#cp3)"><path fill-rule="evenodd" class="b" d="m87 71.2c-0.1-0.5-0.1-1 0.1-1.4 0.2-0.4 0.5-0.8 0.9-0.9 0.4-0.2 0.9-0.2 1.3-0.1 0.3 0.2 0.6 0.5 0.8 1 0.1 0.4 0.1 0.9-0.1 1.3-0.2 0.4-0.5 0.8-0.9 1-0.4 0.1-0.9 0.2-1.2 0-0.4-0.2-0.7-0.5-0.9-0.9zm1.1 0.3q0.4 0.1 0.7-0.1c0.3-0.1 0.5-0.3 0.6-0.6 0.1-0.2 0.1-0.5 0.1-0.8q-0.2-0.4-0.5-0.6-0.4-0.1-0.7 0.1c-0.3 0.1-0.5 0.3-0.6 0.6-0.1 0.3-0.1 0.6-0.1 0.8q0.2 0.4 0.5 0.6z"/></g><path class="b" d="m88.8 70.6l1.2 0.5-0.2 0.5-1.2-0.6z"/><path class="b" d="m89.5 70.9l0.5 0.2-0.7 1.6-0.5-0.2z"/><path fill-rule="evenodd" class="b" d="m92.1 70.1l1.8 0.9c0.2 0.2 0.4 0.4 0.5 0.7 0.1 0.3 0.1 0.6 0 0.8-0.2 0.3-0.4 0.5-0.7 0.6-0.2 0.1-0.5 0.1-0.8-0.1l-1.3-0.6-0.5 1.2-0.6-0.3zm-0.2 1.7l1.2 0.6q0.2 0.1 0.4 0 0.2-0.1 0.2-0.2 0.1-0.2 0.1-0.4-0.1-0.2-0.3-0.2l-1.2-0.7z"/><path class="b" d="m92.6 74.4c0.2-0.5 0.7-1.5-0.3-2l0.9 0.4c0.7 0.4 0.2 1.4-0.1 1.8"/><path class="b" d="m96.2 72.2l2.6 1.5-0.3 0.6-2.1-1.2-0.4 0.6 1.8 1-0.3 0.6-1.8-1-0.4 0.7 2.2 1.3-0.3 0.6-2.7-1.6z"/><path class="b" d="m99.6 77.1c-0.2 0.3 0 0.6 0.4 0.9 0.4 0.2 0.7 0.2 0.8 0 0.4-0.6-1.8-1.5-1.1-2.5 0.6-0.9 1.6-0.2 2 0 0.3 0.3 0.9 0.9 0.5 1.6l-0.7-0.4c0.2-0.3 0-0.6-0.3-0.8-0.4-0.2-0.6-0.3-0.8 0-0.3 0.5 1.8 1.4 1.2 2.5-0.5 0.7-1.4 0.4-2 0-0.4-0.3-1.2-1-0.7-1.8z"/><path class="b" d="m103.3 79.6c-0.2 0.3 0 0.6 0.4 0.9 0.4 0.3 0.7 0.3 0.8 0.1 0.5-0.6-1.7-1.6-1-2.6 0.7-0.9 1.6-0.1 2 0.2 0.4 0.2 0.9 0.9 0.4 1.6l-0.6-0.5c0.2-0.3 0-0.6-0.3-0.8-0.3-0.3-0.6-0.4-0.8-0.1-0.3 0.5 1.8 1.6 1.1 2.6-0.6 0.7-1.4 0.4-2 0-0.4-0.4-1.1-1.2-0.6-1.9z"/><path fill-rule="evenodd" class="b" d="m106.3 82.6c0-0.5 0.2-0.9 0.5-1.3 0.2-0.4 0.7-0.6 1.1-0.7 0.4-0.1 0.9 0 1.2 0.3 0.3 0.3 0.5 0.7 0.5 1.1 0.1 0.5-0.1 0.9-0.4 1.3-0.3 0.3-0.7 0.6-1.1 0.7-0.4 0-0.9-0.1-1.2-0.3-0.3-0.3-0.5-0.7-0.6-1.1zm1 0.6q0.3 0.2 0.7 0.1c0.3 0 0.5-0.2 0.7-0.4 0.2-0.3 0.3-0.5 0.3-0.8q0-0.4-0.3-0.7-0.3-0.2-0.7-0.1c-0.3 0-0.6 0.2-0.7 0.4-0.2 0.2-0.3 0.5-0.3 0.8q0 0.4 0.3 0.7z"/><path class="e" d="m44.4 69.7l0.5-1.5 0.3 1.8z"/><path class="e" d="m44.6 70l0.3-1.8 0.5 1.5z"/><path class="e" d="m44.8 69.3h1.6l-1.6 0.8z"/><path class="e" d="m44.7 69.6l1.7-0.3-1.3 0.9z"/><path class="e" d="m44.7 70.2l-1.3-0.9 1.7 0.3z"/><path class="e" d="m45 70.1l-1.6-0.8h1.6z"/><path class="e" d="m45.3 69.6l0.5 1.5-1.2-1.3z"/><path class="e" d="m45 69.5l0.8 1.6-1.3-1z"/><path class="e" d="m45.2 70.1l-1.2 1 0.8-1.6z"/><path class="e" d="m45.2 69.8l-1.2 1.3 0.5-1.5z"/><path class="e" d="m47.7 85.4l0.4-1.5 0.3 1.7z"/><path class="e" d="m47.9 85.6l0.2-1.7 0.5 1.5z"/><path class="e" d="m48.1 85h1.6l-1.6 0.8z"/><path class="e" d="m47.9 85.3l1.8-0.3-1.3 0.9z"/><path class="e" d="m47.9 85.9l-1.3-0.9 1.8 0.3z"/><path class="e" d="m48.2 85.8l-1.6-0.8h1.6z"/><path class="e" d="m48.6 85.2l0.5 1.6-1.3-1.3z"/><path class="e" d="m48.3 85.2l0.8 1.6-1.3-1z"/><path class="e" d="m48.5 85.8l-1.3 1 0.8-1.6z"/><path class="e" d="m48.5 85.5l-1.3 1.3 0.5-1.6z"/><path class="e" d="m43.3 88.8l0.3-1 0.2 1.1z"/><path class="e" d="m43.5 88.9l0.1-1.1 0.4 1z"/><path class="e" d="m43.6 88.5h1l-1 0.5z"/><path class="e" d="m43.5 88.7l1.1-0.2-0.8 0.6z"/><path class="e" d="m43.5 89.1l-0.9-0.6 1.2 0.2z"/><path class="e" d="m43.7 89l-1.1-0.5h1.1z"/><path class="e" d="m43.9 88.7l0.4 1-0.9-0.9z"/><path class="e" d="m43.7 88.6l0.6 1.1-0.9-0.6z"/><path class="e" d="m43.9 89.1l-0.9 0.6 0.6-1.1z"/><path class="e" d="m43.8 88.8l-0.8 0.9 0.3-1z"/><path class="e" d="m51.5 83.2l0.3-0.8 0.1 0.9z"/><path class="e" d="m51.6 83.3l0.2-0.9 0.2 0.8z"/><path class="e" d="m51.7 83h0.8l-0.8 0.3z"/><path class="e" d="m51.6 83.1l0.9-0.1-0.6 0.4z"/><path class="e" d="m51.7 83.4l-0.7-0.4 0.9 0.1z"/><path class="e" d="m51.8 83.3l-0.8-0.3h0.8z"/><path class="e" d="m52 83.1l0.2 0.7-0.6-0.6z"/><path class="e" d="m51.8 83.1l0.4 0.7-0.6-0.4z"/><path class="e" d="m51.9 83.4l-0.6 0.4 0.4-0.7z"/><path class="e" d="m51.9 83.2l-0.6 0.6 0.2-0.7z"/><path class="e" d="m55.4 89.1l0.4-1.3 0.2 1.5z"/><path class="e" d="m55.6 89.3l0.2-1.5 0.4 1.3z"/><path class="e" d="m55.8 88.8h1.3l-1.3 0.6z"/><path class="e" d="m55.6 89l1.5-0.2-1.1 0.8z"/><path class="e" d="m55.6 89.6l-1-0.8 1.4 0.2z"/><path class="e" d="m55.9 89.4l-1.3-0.6h1.3z"/><path class="e" d="m56.2 89l0.4 1.3-1-1.1z"/><path class="e" d="m55.9 88.9l0.7 1.4-1.1-0.8z"/><path class="e" d="m56.1 89.5l-1.1 0.8 0.7-1.4z"/><path class="e" d="m56.1 89.2l-1.1 1.1 0.5-1.3z"/><path class="e" d="m54.3 92.8l0.4-1.2 0.2 1.4z"/><path class="e" d="m54.5 93l0.2-1.4 0.4 1.2z"/><path class="e" d="m54.7 92.5h1.3l-1.3 0.6z"/><path class="e" d="m54.5 92.7l1.5-0.2-1.1 0.8z"/><path class="e" d="m54.5 93.3l-1-0.8 1.4 0.2z"/><path class="e" d="m54.8 93.1l-1.3-0.6h1.3z"/><path class="e" d="m55.1 92.7l0.4 1.3-1-1.1z"/><path class="e" d="m54.8 92.6l0.7 1.4-1.1-0.8z"/><path class="e" d="m55 93.2l-1.1 0.8 0.7-1.4z"/><path class="e" d="m55 92.9l-1.1 1.1 0.5-1.3z"/><path class="e" d="m85.9 64.8l0.5-1.5 0.3 1.8z"/><path class="e" d="m86.1 65.1l0.3-1.8 0.5 1.5z"/><path class="e" d="m86.3 64.4h1.6l-1.6 0.8z"/><path class="e" d="m86.2 64.7l1.7-0.3-1.3 1z"/><path class="e" d="m86.2 65.4l-1.3-1 1.7 0.3z"/><path class="e" d="m86.5 65.2l-1.6-0.8h1.6z"/><path class="e" d="m86.8 64.7l0.5 1.5-1.2-1.3z"/><path class="e" d="m86.5 64.6l0.8 1.6-1.2-0.9z"/><path class="e" d="m86.8 65.3l-1.3 0.9 0.8-1.6z"/><path class="e" d="m86.7 64.9l-1.2 1.3 0.5-1.5z"/><path class="e" d="m100.3 89.5l0.5-1.5 0.3 1.8z"/><path class="e" d="m100.5 89.8l0.3-1.8 0.5 1.5z"/><path class="e" d="m100.7 89.1h1.6l-1.6 0.8z"/><path class="e" d="m100.6 89.4l1.7-0.3-1.3 0.9z"/><path class="e" d="m100.6 90l-1.3-0.9 1.7 0.3z"/><path class="e" d="m100.9 89.9l-1.6-0.8h1.6z"/><path class="e" d="m101.2 89.4l0.5 1.5-1.2-1.3z"/><path class="e" d="m100.9 89.3l0.8 1.6-1.3-1z"/><path class="e" d="m101.1 89.9l-1.2 1 0.8-1.6z"/><path class="e" d="m101.1 89.6l-1.2 1.3 0.5-1.5z"/><path class="e" d="m105.6 89.9l0.3-1 0.2 1.2z"/><path class="e" d="m105.7 90.1l0.2-1.2 0.3 1z"/><path class="e" d="m105.9 89.6h1l-1 0.5z"/><path class="e" d="m105.7 89.8l1.2-0.2-0.8 0.6z"/><path class="e" d="m105.8 90.2l-0.9-0.6 1.2 0.2z"/><path class="e" d="m106 90.1l-1.1-0.5h1.1z"/><path class="e" d="m106.2 89.8l0.3 1-0.8-0.8z"/><path class="e" d="m106 89.7l0.5 1.1-0.8-0.6z"/><path class="e" d="m106.1 90.2l-0.8 0.6 0.5-1.1z"/><path class="e" d="m106.1 90l-0.8 0.8 0.3-1z"/><path class="e" d="m101.9 92.8l0.4-1.2 0.2 1.4z"/><path class="e" d="m102.1 93l0.2-1.4 0.4 1.2z"/><path class="e" d="m102.2 92.5h1.4l-1.4 0.6z"/><path class="e" d="m102.1 92.7l1.5-0.2-1.1 0.8z"/><path class="e" d="m102.1 93.3l-1.1-0.8 1.5 0.2z"/><path class="e" d="m102.4 93.1l-1.4-0.6h1.4z"/><path class="e" d="m102.7 92.7l0.4 1.3-1.1-1.1z"/><path class="e" d="m102.4 92.6l0.7 1.4-1.1-0.8z"/><path class="e" d="m102.6 93.2l-1.1 0.8 0.7-1.4z"/><path class="e" d="m102.6 92.9l-1.1 1.1 0.4-1.3z"/><path class="e" d="m93 100.6l0.4-1.2 0.2 1.4z"/><path class="e" d="m93.2 100.8l0.2-1.4 0.4 1.2z"/><path class="e" d="m93.4 100.3h1.3l-1.3 0.7z"/><path class="e" d="m93.2 100.5l1.5-0.2-1.1 0.8z"/><path class="e" d="m93.2 101.1l-1-0.8 1.4 0.2z"/><path class="e" d="m93.5 101l-1.3-0.7h1.3z"/><path class="e" d="m93.8 100.5l0.4 1.3-1-1.1z"/><path class="e" d="m93.5 100.5l0.7 1.3-1.1-0.8z"/><path class="e" d="m93.7 101l-1 0.8 0.6-1.3z"/><path class="e" d="m93.7 100.7l-1 1.1 0.4-1.3z"/><path class="e" d="m93 104.4l0.4-1 0.1 1.2z"/><path class="e" d="m93.2 104.6l0.2-1.2 0.3 1z"/><path class="e" d="m93.3 104.1h1.1l-1.1 0.6z"/><path class="e" d="m93.2 104.3l1.2-0.2-0.9 0.7z"/><path class="e" d="m93.2 104.8l-0.8-0.7 1.1 0.2z"/><path class="e" d="m93.4 104.7l-1-0.6h1z"/><path class="e" d="m93.7 104.3l0.3 1-0.8-0.8z"/><path class="e" d="m93.5 104.3l0.5 1-0.9-0.6z"/><path class="e" d="m93.6 104.7l-0.8 0.6 0.5-1z"/><path class="e" d="m93.6 104.5l-0.8 0.8 0.3-1z"/><path class="e" d="m96.8 97.7l0.3-1 0.2 1.2z"/><path class="e" d="m96.9 97.9l0.2-1.2 0.3 1z"/><path class="e" d="m97 97.4h1.1l-1.1 0.6z"/><path class="e" d="m96.9 97.6l1.2-0.2-0.9 0.7z"/><path class="e" d="m96.9 98.1l-0.8-0.7 1.1 0.2z"/><path class="e" d="m97.1 98l-1-0.6h1z"/><path class="e" d="m97.4 97.6l0.3 1-0.8-0.8z"/><path class="e" d="m97.2 97.6l0.5 1-0.8-0.6z"/><path class="e" d="m97.3 98l-0.8 0.6 0.5-1z"/><path class="e" d="m97.3 97.8l-0.8 0.8 0.3-1z"/><path class="e" d="m99.6 95.8l0.4-1.2 0.3 1.4z"/><path class="e" d="m99.8 96l0.2-1.4 0.4 1.2z"/><path class="e" d="m100 95.5h1.3l-1.3 0.6z"/><path class="e" d="m99.8 95.7l1.5-0.2-1.1 0.8z"/><path class="e" d="m99.9 96.3l-1.1-0.8 1.4 0.2z"/><path class="e" d="m100.1 96.1l-1.3-0.6h1.3z"/><path class="e" d="m100.4 95.7l0.4 1.3-1-1.1z"/><path class="e" d="m100.1 95.6l0.7 1.4-1-0.8z"/><path class="e" d="m100.3 96.2l-1 0.8 0.6-1.4z"/><path class="e" d="m100.3 95.9l-1 1.1 0.4-1.3z"/><path class="e" d="m92.9 97l0.4-1 0.1 1.2z"/><path class="e" d="m93.1 97.2l0.2-1.2 0.3 1z"/><path class="e" d="m93.2 96.7h1.1l-1.1 0.6z"/><path class="e" d="m93.1 96.9l1.2-0.2-0.9 0.6z"/><path class="e" d="m93.1 97.3l-0.8-0.6 1.1 0.2z"/><path class="e" d="m93.3 97.3l-1-0.6h1z"/><path class="e" d="m93.6 96.9l0.3 1-0.8-0.8z"/><path class="e" d="m93.4 96.9l0.5 1-0.9-0.6z"/><path class="e" d="m93.5 97.3l-0.8 0.6 0.5-1z"/><path class="e" d="m93.5 97.1l-0.8 0.8 0.3-1z"/><path class="e" d="m60.5 77.9l0.4-1.2 0.3 1.5z"/><path class="e" d="m60.7 78.2l0.2-1.5 0.4 1.2z"/><path class="e" d="m60.9 77.6h1.3l-1.3 0.7z"/><path class="e" d="m60.7 77.8l1.5-0.2-1.1 0.8z"/><path class="e" d="m60.7 78.4l-1-0.8 1.4 0.2z"/><path class="e" d="m61 78.3l-1.3-0.7h1.3z"/><path class="e" d="m61.3 77.8l0.4 1.3-1-1.1z"/><path class="e" d="m61 77.8l0.7 1.3-1.1-0.8z"/><path class="e" d="m61.2 78.3l-1 0.8 0.6-1.3z"/><path class="e" d="m61.2 78l-1 1.1 0.4-1.3z"/><path class="e" d="m84.7 74.6l0.3-1.1 0.2 1.2z"/><path class="e" d="m84.8 74.7l0.2-1.2 0.3 1.1z"/><path class="e" d="m84.9 74.3h1.1l-1.1 0.5z"/><path class="e" d="m84.8 74.5l1.2-0.2-0.8 0.6z"/><path class="e" d="m84.9 74.9l-0.9-0.6 1.2 0.2z"/><path class="e" d="m85.1 74.8l-1.1-0.5h1.1z"/><path class="e" d="m85.3 74.5l0.3 1-0.8-0.9z"/><path class="e" d="m85.1 74.4l0.5 1.1-0.8-0.7z"/><path class="e" d="m85.2 74.8l-0.8 0.7 0.5-1.1z"/><path class="e" d="m85.2 74.6l-0.8 0.9 0.3-1z"/><path class="e" d="m74.5 93.2l0.5-1.6 0.2 1.8z"/><path class="e" d="m74.7 93.4l0.3-1.8 0.5 1.6z"/><path class="e" d="m74.9 92.7h1.6l-1.6 0.8z"/><path class="e" d="m74.7 93l1.8-0.3-1.3 1z"/><path class="e" d="m74.7 93.7l-1.2-1 1.7 0.3z"/><path class="e" d="m75.1 93.5l-1.6-0.8h1.6z"/><path class="e" d="m75.4 93l0.5 1.5-1.2-1.2z"/><path class="e" d="m75.1 93l0.8 1.5-1.3-0.9z"/><path class="e" d="m75.3 93.6l-1.3 0.9 0.9-1.5z"/><path class="e" d="m75.3 93.3l-1.3 1.2 0.5-1.5z"/><path class="e" d="m78.8 85.8l0.4-1.3 0.3 1.5z"/><path class="e" d="m79 86l0.2-1.5 0.4 1.3z"/><path class="e" d="m79.2 85.4h1.3l-1.3 0.7z"/><path class="e" d="m79 85.7l1.5-0.3-1.1 0.8z"/><path class="e" d="m79 86.2l-1-0.8 1.4 0.3z"/><path class="e" d="m79.3 86.1l-1.3-0.7h1.3z"/><path class="e" d="m79.6 85.6l0.4 1.3-1-1.1z"/><path class="e" d="m79.3 85.6l0.7 1.3-1.1-0.8z"/><path class="e" d="m79.5 86.1l-1 0.8 0.6-1.3z"/><path class="e" d="m79.5 85.8l-1 1.1 0.4-1.3z"/><path class="e" d="m74.6 82.4l0.4-1.3 0.2 1.5z"/><path class="e" d="m74.8 82.6l0.2-1.5 0.4 1.3z"/><path class="e" d="m74.9 82.1h1.3l-1.3 0.6z"/><path class="e" d="m74.8 82.3l1.4-0.2-1 0.8z"/><path class="e" d="m74.8 82.9l-1.1-0.8 1.5 0.2z"/><path class="e" d="m75 82.7l-1.3-0.6h1.3z"/><path class="e" d="m75.3 82.3l0.4 1.3-1-1.1z"/><path class="e" d="m75.1 82.2l0.6 1.4-1-0.8z"/><path class="e" d="m75.3 82.8l-1.1 0.8 0.7-1.4z"/><path class="e" d="m75.2 82.5l-1 1.1 0.4-1.3z"/><path class="e" d="m70.9 85.8l0.4-1 0.1 1.1z"/><path class="e" d="m71.1 85.9l0.2-1.1 0.3 1z"/><path class="e" d="m71.2 85.5h1.1l-1.1 0.5z"/><path class="e" d="m71.1 85.7l1.2-0.2-0.9 0.6z"/><path class="e" d="m71.1 86.1l-0.8-0.6 1.1 0.2z"/><path class="e" d="m71.3 86l-1-0.5h1z"/><path class="e" d="m71.6 85.7l0.3 1-0.8-0.9z"/><path class="e" d="m71.3 85.6l0.6 1.1-0.9-0.6z"/><path class="e" d="m71.5 86.1l-0.9 0.6 0.6-1.1z"/><path class="e" d="m71.5 85.8l-0.9 0.9 0.4-1z"/><path class="e" d="m72.9 88.4l0.2-0.7 0.1 0.8z"/><path class="e" d="m73 88.5l0.1-0.8 0.3 0.7z"/><path class="e" d="m73.1 88.2h0.7l-0.7 0.4z"/><path class="e" d="m73 88.3l0.8-0.1-0.6 0.4z"/><path class="e" d="m73 88.6l-0.6-0.4 0.8 0.1z"/><path class="e" d="m73.2 88.6l-0.8-0.4h0.8z"/><path class="e" d="m73.3 88.3l0.3 0.7-0.6-0.6z"/><path class="e" d="m73.2 88.3l0.4 0.7-0.6-0.4z"/><path class="e" d="m73.3 88.6l-0.6 0.4 0.4-0.7z"/><path class="e" d="m73.3 88.4l-0.6 0.6 0.2-0.7z"/><path class="e" d="m85.6 101.6l0.4-1.3 0.2 1.5z"/><path class="e" d="m85.8 101.8l0.2-1.5 0.4 1.3z"/><path class="e" d="m85.9 101.2h1.4l-1.4 0.7z"/><path class="e" d="m85.8 101.5l1.5-0.3-1.1 0.8z"/><path class="e" d="m85.8 102l-1-0.8 1.4 0.3z"/><path class="e" d="m86.1 101.9l-1.3-0.7h1.3z"/><path class="e" d="m86.4 101.4l0.4 1.3-1.1-1.1z"/><path class="e" d="m86.1 101.4l0.7 1.3-1.1-0.8z"/><path class="e" d="m86.3 101.9l-1.1 0.8 0.7-1.3z"/><path class="e" d="m86.3 101.6l-1.1 1.1 0.4-1.3z"/><path class="e" d="m88.8 98.3l0.4-1 0.1 1.1z"/><path class="e" d="m89 98.4l0.2-1.1 0.3 1z"/><path class="e" d="m89.1 98h1.1l-1.1 0.5z"/><path class="e" d="m89 98.2l1.2-0.2-0.9 0.6z"/><path class="e" d="m89 98.6l-0.8-0.6 1.1 0.2z"/><path class="e" d="m89.2 98.5l-1-0.5h1z"/><path class="e" d="m89.5 98.2l0.3 1-0.8-0.9z"/><path class="e" d="m89.2 98.1l0.6 1.1-0.9-0.6z"/><path class="e" d="m89.4 98.6l-0.9 0.6 0.6-1.1z"/><path class="e" d="m89.4 98.3l-0.9 0.9 0.4-1z"/><path class="e" d="m82.8 97.4l0.3-1.1 0.2 1.2z"/><path class="e" d="m82.9 97.5l0.2-1.2 0.3 1.1z"/><path class="e" d="m83 97.1h1.1l-1.1 0.5z"/><path class="e" d="m82.9 97.3l1.2-0.2-0.9 0.6z"/><path class="e" d="m82.9 97.7l-0.8-0.6 1.2 0.2z"/><path class="e" d="m83.1 97.6l-1-0.5h1z"/><path class="e" d="m83.4 97.3l0.3 1-0.8-0.9z"/><path class="e" d="m83.2 97.2l0.5 1.1-0.8-0.7z"/><path class="e" d="m83.3 97.6l-0.8 0.7 0.5-1.1z"/><path class="e" d="m83.3 97.4l-0.8 0.9 0.3-1z"/><path class="e" d="m59.7 96.2l0.5-1.5 0.2 1.8z"/><path class="e" d="m59.9 96.5l0.3-1.8 0.5 1.5z"/><path class="e" d="m60.1 95.8h1.6l-1.6 0.8z"/><path class="e" d="m59.9 96.1l1.8-0.3-1.3 0.9z"/><path class="e" d="m60 96.7l-1.3-0.9 1.7 0.3z"/><path class="e" d="m60.3 96.6l-1.6-0.8h1.6z"/><path class="e" d="m60.6 96.1l0.5 1.5-1.2-1.3z"/><path class="e" d="m60.3 96l0.8 1.6-1.3-1z"/><path class="e" d="m60.5 96.6l-1.2 1 0.8-1.6z"/><path class="e" d="m60.5 96.3l-1.2 1.3 0.4-1.5z"/><path class="e" d="m74.8 105.7l0.2-0.5 0.1 0.5z"/><path class="e" d="m74.9 105.7l0.1-0.5 0.1 0.5z"/><path class="e" d="m74.9 105.5h0.6l-0.6 0.3z"/><path class="e" d="m74.9 105.6l0.6-0.1-0.5 0.3z"/><path class="e" d="m74.9 105.8l-0.4-0.3 0.6 0.1z"/><path class="e" d="m75 105.8l-0.5-0.3h0.5z"/><path class="e" d="m75.1 105.6l0.2 0.5-0.4-0.4z"/><path class="e" d="m75 105.6l0.3 0.5-0.4-0.3z"/><path class="e" d="m75.1 105.8l-0.4 0.3 0.2-0.5z"/><path class="e" d="m75.1 105.7l-0.4 0.4 0.1-0.5z"/></g><path class="f" d="m143.8 66.5c-19 9.4-43.3 15-69.8 15-26.1 0-50-5.5-68.9-14.5 4.3-34.8 33.7-61.8 69.4-61.8 35.5 0 64.8 26.7 69.3 61.3z"/><path class="g" d="m75.5 146c-14.9 0-27-4-27-8.9 0-4.9 12.1-8.9 27-8.9 15 0 27 4 27 8.9 0 4.9-12 8.9-27 8.9z"/></svg>