<svg version="1.2" xmlns="http://www.w3.org/2000/svg" viewBox="0 0 212 120" width="212" height="120"><defs><clipPath clipPathUnits="userSpaceOnUse" id="cp1"><path d="m99 120c-33.18 0-60-26.82-60-60 0-33.18 26.82-60 60-60 33.18 0 60 26.82 60 60 0 33.18-26.82 60-60 60z"/></clipPath></defs><style>.a{fill:#cc2229}.b{fill:#25a78e}.c{fill:#fff22d;stroke:#000;stroke-width:.5}.d{fill:#cc2229;stroke:#fff;stroke-width:2}.e{fill:#fff;stroke:#fff22d;stroke-width:.5}.f{fill:#00acec;stroke:#fff22d;stroke-width:.5}.g{fill:#fff22d}</style><g clip-path="url(#cp1)"><path  d="m99 120c-33.2 0-60-26.8-60-60 0-33.2 26.8-60 60-60 33.2 0 60 26.8 60 60 0 33.2-26.8 60-60 60z"/><path fill-rule="evenodd" class="a" d="m0 0h212v119.5h-212z"/><path fill-rule="evenodd" class="b" d="m0 0h96v119.5h-96z"/></g><path fill-rule="evenodd" class="c" d="m97.1 93.6c-18.6 0-33.6-15.1-33.6-33.8 0-18.7 15-33.8 33.6-33.8 18.7 0 33.7 15.1 33.7 33.8 0 18.7-15 33.8-33.7 33.8zm29.5-33.8c0-16.4-13.2-29.6-29.5-29.6-16.2 0-29.4 13.2-29.4 29.6 0 16.4 13.2 29.6 29.4 29.6 16.3 0 29.5-13.2 29.5-29.6z"/><path fill-rule="evenodd" class="c" d="m126.6 43.8l1.7 3.3c-22.8-7.3-40.7-8.9-61.7-1.5l1.5-2.8c18.8-7.5 38.4-5.8 58.5 1zm0 15.4l-0.2 3.3c-18.3 5.9-39.6 5.9-58.7 0l-0.1-3.3c18.8 6 40.2 5.2 59 0zm-4.3 15.9l-2.1 3.2c-15.9 3.6-30.7 2.4-46.1 0l-2.2-3.2c16.7 2.5 33 3.2 50.4 0z"/><path fill-rule="evenodd" class="c" d="m127.8 73.8l-1.6 3c-17.5-8.3-42-8.2-58.1 0.1-0.8-1.2-1.2-2.2-1.8-3.6 17.7-7.5 43.6-8.9 61.5 0.5zm-64.2-17.2l-0.1 3.5c21.6-6.3 45.7-7.5 67.3 0.3l-0.1-3.5c-22.2-7.4-45.4-6.1-67.1-0.3z"/><path fill-rule="evenodd" class="c" d="m71.2 45.7c16.2 4.4 33 4.4 51.8 0l1.4 3.1c-14.5 2.8-35.4 5.2-54.6 0 0.4-1.1 0.9-2 1.4-3.1z"/><path fill-rule="evenodd" class="c" d="m100.8 89.2c-2.6 0.3-4.9 0.3-7.2 0v-58.7c2.2-0.4 5.1-0.4 7.2 0z"/><path fill-rule="evenodd" class="c" d="m68.7 41.9l59.6 30.9-2.3 4.3-59.5-31.3z"/><path fill-rule="evenodd" class="d" d="m112.7 68.8c-3.2 6.1-8.7 10.3-15.7 12.7-7.7-2.4-13.3-7-15.5-12.5v-30.8h31.2z"/><path fill-rule="evenodd" class="e" d="m88.3 46h17.6v20.8c-1.5 3.6-5.5 6-8.6 6.9-3.9-0.9-7.1-3.8-9.1-6.4z"/><path fill-rule="evenodd" class="f" d="m95.1 57.2h4v3.9c-0.4 0.7-1.2 1.4-2 1.5-0.9-0.2-1.7-0.7-2-1.4zm5.8 0h4v4c-0.3 0.6-1.2 1.3-2 1.4-0.9-0.2-1.7-0.7-2-1.4zm-5.8 8.1h4v4c-0.4 0.6-1.2 1.4-2 1.5-0.9-0.2-1.7-0.8-2-1.4zm-5.6-8.1h4v4c-0.4 0.6-1.2 1.3-2.1 1.5-0.8-0.2-1.6-0.7-1.9-1.4zm5.6-8.2h4v4c-0.4 0.6-1.2 1.3-2 1.5-0.9-0.3-1.7-0.8-2-1.4z"/><path fill-rule="evenodd" class="g" d="m82 58.8l0.5-0.4 0.6-3.7-0.7-0.6h1.3c0.3-0.6 1.9-0.6 2.4 0h1.2l-0.7 0.6 0.6 3.7 0.6 0.4zm1.2-0.8h3.3l-0.3-1.8h-2.7zm4.3 18.1v-0.8l-1.9-3h-1l1-0.9c-0.3-0.6 0.9-1.8 1.7-1.6l0.9-0.9v1l2.8 2.3h0.7zm0.4-1.4l2.4-2.3-1.5-1.2-2 1.9zm14.2-2.5h0.7l2.9-2.1v-1l0.8 0.9c0.8-0.2 1.9 1 1.7 1.7l1 0.8h-1l-2.1 2.9 0.1 0.8zm4.9 0.9l-2.1-1.7-1.2 1.3 2.4 2zm-0.8-14.7l0.6-0.5 0.6-3.7-0.8-0.6h1.3c0.3-0.6 2-0.6 2.4 0h1.3l-0.8 0.6 0.6 3.7 0.6 0.5zm1.2-0.9h3.3l-0.2-1.8h-2.8zm-1.2-13.3l0.6-0.5 0.6-3.5-0.8-0.7h1.3c0.3-0.5 1.9-0.6 2.4 0h1.2l-0.7 0.7 0.6 3.5 0.6 0.5zm1.2-0.8h3.3l-0.2-1.8h-2.8zm-13.1 0.8l0.6-0.5 0.6-3.6-0.7-0.6h1.2c0.3-0.6 1.9-0.6 2.4 0h1.2l-0.7 0.6 0.6 3.6 0.6 0.5zm1.2-0.8h3.2l-0.2-1.8h-2.8zm-13.6 0.7l0.6-0.5 0.5-3.5-0.7-0.6h1.3c0.4-0.6 1.9-0.7 2.4 0h1.3l-0.7 0.6 0.5 3.5 0.6 0.5zm1.3-0.7h3.2l-0.3-1.9h-2.6z"/></svg>