<svg version="1.2" xmlns="http://www.w3.org/2000/svg" viewBox="0 0 300 120" width="300" height="120"><defs><clipPath clipPathUnits="userSpaceOnUse" id="cp1"><path d="m113 120c-33.18 0-60-26.82-60-60 0-33.18 26.82-60 60-60 33.18 0 60 26.82 60 60 0 33.18-26.82 60-60 60z"/></clipPath></defs><style>.a{fill:#fff22d}.b{fill:#cc2229}.c{fill:#d0d1d3}.d{fill:#6b7a96}.e{fill:#cc2229;stroke:#000;stroke-linecap:round;stroke-linejoin:round;stroke-width:.2}.f{fill:#cc2229;stroke:#000;stroke-linecap:round;stroke-linejoin:round;stroke-width:.1}.g{fill:none;stroke:#000;stroke-linecap:round;stroke-linejoin:round;stroke-width:.1}.h{fill:#c6aa6a;stroke:#000;stroke-linecap:round;stroke-linejoin:round;stroke-width:.1}.i{fill:#fff;stroke:#000;stroke-linecap:round;stroke-linejoin:round;stroke-width:.1}.j{fill:#fff22d;stroke:#fff22d;stroke-linecap:round;stroke-linejoin:round;stroke-width:.1}.k{fill:#fff;stroke:#000;stroke-linecap:round;stroke-linejoin:round;stroke-width:.2}.l{fill:#c6aa6a;stroke:#000;stroke-linecap:round;stroke-linejoin:round;stroke-width:.2}.m{fill:#fff22d;stroke:#000;stroke-linecap:round;stroke-linejoin:round;stroke-width:.1}.n{fill:#505e86;stroke:#fff22d;stroke-linecap:round;stroke-linejoin:round;stroke-width:.1}.o{fill:#e5a773;stroke:#000;stroke-linecap:round;stroke-linejoin:round;stroke-width:.1}.p{fill:#598376;stroke:#000;stroke-linecap:round;stroke-linejoin:round;stroke-width:.1}.q{stroke:#000;stroke-linecap:round;stroke-linejoin:round;stroke-width:.1}.r{fill:#fff22d;stroke:#000;stroke-linecap:round;stroke-linejoin:round;stroke-width:.3}.s{fill:#cc2229;stroke:#000;stroke-linecap:round;stroke-linejoin:round;stroke-width:.3}.t{fill:#33a457;stroke:#000;stroke-linecap:round;stroke-linejoin:round;stroke-width:.1}.u{fill:#fff22d;stroke:#000;stroke-linecap:round;stroke-linejoin:round;stroke-width:0}.v{fill:#598376}.w{fill:#cc2229;stroke:#000;stroke-linecap:round;stroke-linejoin:round;stroke-width:0}.x{fill:#505e86;stroke:#000;stroke-linecap:round;stroke-linejoin:round;stroke-width:.2}.y{fill:#ca0088;stroke:#000;stroke-linecap:round;stroke-linejoin:round;stroke-width:.3}.z{fill:none;stroke:#000;stroke-linecap:round;stroke-linejoin:round;stroke-width:.3}.A{fill:#fff;stroke:#fff;stroke-linecap:round;stroke-linejoin:round;stroke-width:.1}</style><g clip-path="url(#cp1)"><path class="a" d="m113 120c-33.2 0-60-26.8-60-60 0-33.2 26.8-60 60-60 33.2 0 60 26.8 60 60 0 33.2-26.8 60-60 60z"/><path fill-rule="evenodd" class="a" d="m44 0h151v119.4h-151z"/><path fill-rule="evenodd" class="b" d="m44 89.1h150.9v30.3h-150.9zm0-89.1h150.9v30.3h-150.9z"/></g><path fill-rule="evenodd" class="c" d="m127.3 77.6h7.5v3.2h-7.5z"/><path fill-rule="evenodd" class="d" d="m134.8 80.7v0.6c-0.8 0.2-1.8 0.1-2.5-0.3-0.9-0.3-1.8-0.3-2.5 0-0.7 0.4-1.8 0.4-2.5 0.2v-0.6c0.7 0.2 1.8 0.2 2.5-0.2 0.7-0.4 1.8-0.2 2.5 0 0.8 0.3 1.6 0.5 2.5 0.3zm0-1.6v0.6c-0.8 0.2-1.8 0-2.5-0.3-0.9-0.3-1.8-0.3-2.5 0-0.7 0.3-1.8 0.3-2.5 0.1v-0.6c0.7 0.2 1.8 0.2 2.5-0.1 0.7-0.4 1.8-0.2 2.5 0 0.8 0.3 1.6 0.4 2.5 0.3zm0-1.7v0.7c-0.8 0.2-1.8 0-2.5-0.3-0.9-0.3-1.8-0.3-2.5 0-0.7 0.3-1.8 0.3-2.5 0.2v-0.7c0.7 0.2 1.8 0.2 2.5-0.2 0.7-0.2 1.8-0.2 2.5 0 0.8 0.3 1.6 0.5 2.5 0.3z"/><path fill-rule="evenodd" class="c" d="m92 77.6h7.5v3.2h-7.5z"/><path fill-rule="evenodd" class="d" d="m94.5 78.8c0.7-0.2 1.8-0.4 2.6 0 0.7 0.3 1.7 0.3 2.5 0.1v0.6c-0.8 0.2-1.7 0.2-2.5-0.1-0.8-0.3-1.8-0.3-2.6 0-0.7 0.3-1.7 0.5-2.4 0.3l-0.1-0.6c0.9 0.1 1.7 0 2.5-0.3zm0 1.6c0.7-0.2 1.8-0.4 2.6 0 0.7 0.4 1.7 0.4 2.5 0.2v0.6c-0.8 0.2-1.7 0.2-2.5-0.2-0.8-0.3-1.8-0.3-2.6 0-0.7 0.4-1.7 0.5-2.4 0.3l-0.1-0.6c0.9 0.2 1.7 0 2.5-0.3zm0-3.3c0.7-0.2 1.8-0.2 2.6 0 0.7 0.4 1.7 0.4 2.5 0.2v0.7c-0.8 0.1-1.7 0.1-2.5-0.2-0.8-0.3-1.8-0.3-2.6 0-0.7 0.3-1.7 0.5-2.4 0.3l-0.1-0.7c0.9 0.2 1.7 0 2.5-0.3z"/><path fill-rule="evenodd" class="e" d="m111.9 69.9v7.4l-1.3 1.1v-9.7c0.4 0.4 0.8 0.8 1.3 1.2zm-2.7-4.5v13.8l-1.1 0.4v-14.2zm-2.4 0v14.6l-1.3-0.6v-14zm-4 12v-12h1.2v13.2c-0.4-0.4-0.8-0.8-1.2-1.2z"/><path fill-rule="evenodd" class="f" d="m92.3 63.7c-0.2-0.2-1-1.9-0.9-2.4 2.1-2.1 7.6-2.5 10.2-1.5v2.6c-2.6-1.4-7.9-0.8-9.3 1.3z"/><path class="g" d="m92.4 63.7c0.4 0.5 0.9 1.1 1.5 1.1"/><path fill-rule="evenodd" class="f" d="m99 63.9c0.3 0.6 0.3 2.1 0.2 2.3-0.7 1.1-4.7 2.8-7.1 4.2-0.3-0.3-0.6-1.4-0.1-2.3 2.2-1.4 5.8-2.4 7-4.2-0.1-0.3-0.9-0.8-1.3-0.9 0.5 0.2 1 0.6 1.3 0.9z"/><path fill-rule="evenodd" class="f" d="m92.9 70c0.6 0.3 0.9 1.8 0.2 1.7-0.1-0.3-0.8-1.2-0.9-1.3z"/><path class="g" d="m130.2 61.7v4.1"/><path class="g" d="m130.2 54.7v4.7"/><path fill-rule="evenodd" class="h" d="m128.4 76h5.3v1.5h-5.3zm4.8 0h-4.5l0.7-0.7h3.2zm-0.4-1.1h-3.7c0 0-0.1 0.1-0.1 0.3 0 0.1 0.1 0.1 0.1 0.1h3.7c0.2 0 0.2 0 0.2-0.1 0-0.2 0-0.3-0.2-0.3z"/><path fill-rule="evenodd" class="i" d="m132.8 69.4v5.4h-3.5v-7.3c1.2 0.6 2.4 1.2 3.5 1.9zm0-7v4.6c-1.2-0.5-2.3-1.2-3.5-1.7v-3.7c0.9 0 2.4 0.2 3.5 0.8zm-0.1-7.7v5.1c-1.1-0.4-2.2-0.4-3.4-0.5v-4.6z"/><path fill-rule="evenodd" class="h" d="m132.7 54.2v0.5h-3.4v-0.5l-0.7-0.9h-0.1v-1.4h5v1.4h-0.2l-0.6 0.9zm-39.6 21.8h5.3v1.5h-5.3zm5 0h-4.6l0.7-0.7h3.2zm-4.3-0.8c0 0.1 0 0.1 0.2 0.1h3.7c0.1 0 0.2 0 0.2-0.1 0-0.2-0.1-0.3-0.2-0.3h-3.7c-0.2 0-0.2 0.1-0.2 0.3z"/><path fill-rule="evenodd" class="i" d="m97.6 67.5v7.3h-3.6v-5.4c1.1-0.7 2.4-1.2 3.6-1.9zm0-5.8v3.6c-1.1 0.6-2.4 1.2-3.6 1.8v-4.6c1.1-0.6 2.3-0.7 3.6-0.8zm0-2.4c-1.3 0.1-2.4 0.1-3.5 0.5v-5.1h3.5zm-3.5-5.1v0.5h3.5v-0.5z"/><path fill-rule="evenodd" class="h" d="m97.6 54.2h-3.5l-0.6-0.9h4.7zm-4.3-0.9h5.1v-1.4h-5.1z"/><path class="g" d="m97.1 54.7v4.7m0.2-4.7v4.7m34.8-4.7v4.7m0.4-4.7v4.7m-35.4 2.3v3.8m0.2-3.8v3.8m34.8-3.8v3.8m0.4-3.8v3.8m-35.4 2.3v7m0.2-7v7m34.8-7v7m0.4-7v7"/><path fill-rule="evenodd" class="f" d="m125.5 62.1v-2.4c2.7-1 7.8-0.5 10 1.6 0.2 0.5-0.6 2.2-0.8 2.4-1.5-2.1-6.5-3-9.2-1.6z"/><path class="g" d="m134.6 63.6c-0.4 0.6-1.1 1.3-1.7 1.4"/><path fill-rule="evenodd" class="f" d="m129.1 63c-0.3 0.1-1 0.6-1.1 0.9 1.1 1.8 4.7 2.8 7 4.2 0.4 0.9 0.1 2-0.2 2.3-2.4-1.4-6.3-3.1-7-4.2-0.1-0.2-0.2-1.7 0.2-2.3 0.3-0.4 0.6-0.6 1.1-0.9z"/><path fill-rule="evenodd" class="f" d="m134.8 70.4c-0.1 0.1-0.9 1-1 1.3-0.7 0.1-0.4-1.4 0.1-1.7z"/><path fill-rule="evenodd" class="j" d="m93.2 62.5l-0.8-1.6c0.4-0.3 1-0.6 1.3-0.1 0.2 0.4 0 0.7-0.7 1l0.3 0.6zm-0.5-1.6l0.3 0.7c0.4-0.1 0.8-0.4 0.6-0.7-0.2-0.4-0.6-0.1-0.9 0zm2.2 0.7l0.7-0.2 0.1 0.1-0.9 0.3-0.6-1.8h0.2zm2.4-0.2l-0.9-1.7h0.2l0.8 1.5 0.5-1.6h0.2l-0.6 1.8zm1.8-0.6c0 0.7 0.8 0.5 0.6-0.1 0-0.2-0.9-0.2-0.7-0.8 0.1-0.2 0.5-0.5 0.9-0.2 0.1 0.1 0.1 0.3 0.1 0.4h-0.1c-0.1-0.4-0.7-0.4-0.7-0.1-0.1 0.5 0.7 0.1 0.8 0.9 0 0.1-0.1 0.6-0.6 0.5-0.3 0-0.6-0.3-0.6-0.6zm34.6-0.3l0.2 0.1v1.8l-0.2-0.1v-0.6l-0.7-0.3-0.4 0.4-0.2-0.1zm0 0.2l-0.6 0.6 0.6 0.2zm-2.8 0.6l0.4-1.5c0.7 0.1 1 0.3 0.9 0.7 0 0.3-0.2 0.4-0.5 0.4l0.2 0.7h-0.1l-0.4-0.9c0.4 0.1 0.6 0.1 0.7-0.2 0.1-0.4-0.5-0.5-0.7-0.5l-0.4 1.4zm-1-0.1l0.2-1.5-0.4-0.1h0.9v0.1h-0.4l-0.1 1.5h-0.2zm-1.5-0.2l0.7-0.1v0.2l-0.8 0.1-0.2-1.6h0.2zm-1.2 0.3l-1-1.4 0.2-0.1 0.8 1.3 0.3-1.5h0.2l-0.4 1.7z"/><path fill-rule="evenodd" class="k" d="m113.3 52.3h12.3v13.1h-12.3z"/><path fill-rule="evenodd" class="l" d="m120.6 53.7l-0.3-1 0.4 0.3 0.4-0.2 0.3 0.4h0.5v0.4l0.5 0.1-0.1 0.5 0.6 0.3-0.9 0.2c-0.6-0.5-0.6-1-1.4-1z"/><path fill-rule="evenodd" class="e" d="m101.7 52.3h11.5v13.1h-11.5z"/><path fill-rule="evenodd" class="m" d="m110.3 61.7l0.5 0.5q-0.1 0.2-0.2 0.4-0.1 0.2-0.3 0.4-0.1 0.2-0.1 0.4-0.1 0.2-0.2 0.4h-5.9v-1.9h0.8v-3.5h5.4zm-5.8-4.9v1.6h6v-1.7h-0.9v0.8h-0.8v-0.8h-1v0.8h-0.6v-0.8h-0.9v0.9h-0.7v-0.8z"/><path fill-rule="evenodd" class="n" d="m108.1 59.3c0-0.6 1.7-0.6 1.7 0v1.2h-1.7zm-2.9 0c0-0.6 1.7-0.6 1.7 0v1.3h-1.7z"/><path fill-rule="evenodd" class="k" d="m119.9 80c-6.6 1.7-9.3 1.2-13.3-0.2 3.4-0.5 4.9-1.7 6.6-4.3 1.5 2 3.7 3.9 6.7 4.5z"/><path fill-rule="evenodd" class="o" d="m113.2 79.7c-0.7 0-1.2-0.6-1.2-1.4 0-0.7 0.5-1.3 1.2-1.3 0.7 0 1.2 0.6 1.2 1.3 0 0.8-0.5 1.4-1.2 1.4z"/><path fill-rule="evenodd" class="p" d="m113.9 80.3c-0.1-0.8 1.3-1 1.8-0.5-0.5 0.5-1.2 1.1-1.8 0.5z"/><path fill-rule="evenodd" class="q" d="m113.6 79.6c-0.1 0.3-0.3 0.9 0.2 1.2h-1q0.4-0.6 0-1.2c0.2 0.1 0.7 0.1 0.8 0z"/><path fill-rule="evenodd" class="p" d="m110.5 79.6c0.7 0.7 1.4 0.7 2.3 0.7-1-1.1-1.7-1.1-2.3-0.7z"/><path fill-rule="evenodd" class="f" d="m113.1 77.5c0.4 0 0.6 0.4 0.6 0.8 0 0.4-0.2 0.7-0.6 0.7-0.2 0-0.5-0.3-0.5-0.7 0-0.4 0.3-0.8 0.5-0.8z"/><path fill-rule="evenodd" class="m" d="m106.3 57.6h-0.9v-1.8h-0.4v-0.9h0.4v0.4h0.3v-0.4h0.4v0.4h0.3v-0.4h0.4v0.9h-0.4zm3.3 0h-0.9v-1.8h0.9zm-1.8 0h-0.8v-3.1h-0.5v-1h0.4v0.5h0.3v-0.5h0.4v0.5h0.4v-0.5h0.3v1h-0.5zm0.4-2.6v0.9h1.8v-1h-0.4v0.5h-0.3v-0.4h-0.3v0.4h-0.4v-0.4z"/><path fill-rule="evenodd" class="r" d="m105.9 50.9c0 1.6 14.7 1.8 15-0.1-1.1-2.1-14.6-2-15 0.1z"/><path fill-rule="evenodd" class="e" d="m121.3 48.7c-4.8-1.3-12.7-0.8-15.5-0.1-0.7 0.1-1.7 0.8-3.1-4.5 0-2.2 3.3-3.1 5-2 1.2-1.8 4.3-2.1 5.6-0.8 2.2-1.3 4.9-0.5 5.9 0.9 2-1.3 5-0.2 5.1 1.4-0.2 2.6-1.4 5.3-3 5.1z"/><path fill-rule="evenodd" class="s" d="m106.6 50.8c1.9-1.6 12.5-1 13.3 0 0.1 1.4-13.9 1.1-13.3 0z"/><path fill-rule="evenodd" class="r" d="m105.9 50.8l-0.3-1.7c5.2-1.1 11.3-0.9 15.7 0l-0.5 1.7c-0.5-1.9-14-2-14.9 0z"/><path fill-rule="evenodd" class="i" d="m121 48.5q0.1 0 0.2 0.1 0.1 0.1 0.1 0.1c0.1 0.1 0.1 0.2 0.1 0.3q0 0-0.1 0 0 0.1-0.1 0.1 0 0-0.1 0 0 0-0.1 0c-5.4-1-9.8-1-15.3-0.1-0.4 0.1-0.6-0.1-0.5-0.3q0 0 0.1 0 0.1-0.1 0.2-0.2c4-0.7 8.8-1 13.9-0.3q0.2 0.1 0.3 0.1 0.6 0.1 1.3 0.2zm-15.8 0.2c-0.8 0.1-1.7-0.7-1.7-1.4 0-0.1 0.1-0.2 0.3-0.1 0.8 1.4 2.1 0.9 2.3-0.5 0.9 1.4 1.6 1 2.1-0.3 1.2 2 2.4 0.3 2.7 0 0.9 1.2 2.3 0.7 2.6-0.5 0.9 2.3 2.7 0.8 3 0.1 0.3 1.4 1 1.6 1.9 0.8 0.7 1.6 1.9 1.1 2.7 0.6 0.3 0.6 0.2 1.5 1.9 0 0 0.6-0.9 1.3-1.2 1.3-0.3 0.1-0.4 0.1-0.5 0q0 0-0.1-0.1c-0.1-0.2-0.2-0.5-0.6-0.5q-0.5 0.2-0.9 0.2-0.1-0.1-0.3-0.1-0.5-0.1-1-0.7c-0.7 0.7-1.7 0.5-2.2-0.5-1 1.1-2.4 0.5-2.8 0.1-0.8 0.8-1.6 0.8-2.5 0-1 1.2-2.4 0.8-2.7 0.1 0 1.2-1.5 1-2 0.4 0 0.2-0.4 0.6-0.7 0.9q0 0 0 0-0.2 0.1-0.3 0.2zm8.1-9.5c0.2 0 0.3 0.1 0.3 0.2 0 0.1-0.1 0.2-0.3 0.2-0.1 0-0.2-0.1-0.2-0.2 0-0.1 0.1-0.2 0.2-0.2zm0 0.8q0.3 0 0.3 0.2c0 0.1-0.1 0.2-0.3 0.2-0.1 0-0.2-0.1-0.2-0.2 0-0.2 0.1-0.2 0.2-0.2zm0 0.7c0.3 0 0.4 0.1 0.4 0.3q0 0.3-0.4 0.3c-0.1 0-0.3-0.1-0.3-0.3 0-0.2 0.2-0.3 0.3-0.3zm0 0.9c0.4 0 0.6 0.2 0.6 0.4 0 0.2-0.2 0.4-0.6 0.4-0.2 0-0.5-0.2-0.5-0.4 0-0.2 0.3-0.4 0.5-0.4zm12.6 3.3c0 0.3-0.3 0.5-0.6 0.5-0.3 0-0.6-0.2-0.6-0.5 0-0.2 0.3-0.5 0.6-0.5 0.3 0 0.6 0.3 0.6 0.5zm-1.6 0.4l-0.4-1.2c2.4-2.4-1.1-4.1-3.6-3.6v-0.4c2.3-0.1 6.8 0.8 3.8 4.1l0.5 0.9zm2.2-2.9c0 0.3-0.3 0.5-0.6 0.5-0.4 0-0.6-0.2-0.6-0.5 0-0.3 0.2-0.5 0.6-0.5 0.3 0 0.6 0.2 0.6 0.5zm-0.3-1.2c0 0.2-0.3 0.5-0.6 0.5-0.4 0-0.6-0.3-0.6-0.5 0-0.3 0.2-0.5 0.6-0.5 0.3 0 0.6 0.2 0.6 0.5zm-1.2-1c0 0.3-0.3 0.5-0.5 0.5-0.4 0-0.6-0.2-0.6-0.5 0-0.2 0.2-0.5 0.6-0.5 0.2 0 0.5 0.3 0.5 0.5zm-1.2-0.4c0 0.3-0.3 0.5-0.6 0.5-0.3 0-0.5-0.2-0.5-0.5 0-0.2 0.2-0.4 0.5-0.4 0.3 0 0.6 0.2 0.6 0.4zm-1.2-0.1c0 0.2-0.3 0.5-0.6 0.5-0.3 0-0.5-0.3-0.5-0.5 0-0.3 0.2-0.5 0.5-0.5 0.3 0 0.6 0.2 0.6 0.5zm-1.1-0.1c0 0.2-0.3 0.5-0.6 0.5-0.3 0-0.6-0.3-0.6-0.5 0-0.3 0.3-0.5 0.6-0.5 0.3 0 0.6 0.2 0.6 0.5zm-2.8 4.3l-0.5-1.3c2.3-2.6-2.3-4.2-3.7-2.9v0.1c-0.1 0.9-0.7 2.1 0.4 2.9l-1 0.9-0.2-0.3 0.7-0.5c-0.7-1-0.3-2.6 0.1-3.5 2-1.4 6.5 0.7 4 3.4l0.3 0.4q0 0.1 0.2 0.2l0.1 0.2zm1.1-1.8c0 0.2-0.2 0.4-0.4 0.4-0.2 0-0.4-0.2-0.4-0.4 0-0.2 0.2-0.3 0.4-0.3 0.2 0 0.4 0.1 0.4 0.3zm0.4-1c0 0.3-0.2 0.5-0.5 0.5-0.2 0-0.4-0.2-0.4-0.5 0-0.2 0.2-0.4 0.4-0.4 0.3 0 0.5 0.2 0.5 0.4zm-0.2-1.2c0 0.3-0.2 0.4-0.4 0.4-0.3 0-0.5-0.1-0.5-0.4 0-0.2 0.2-0.4 0.5-0.4 0.2 0 0.4 0.2 0.4 0.4zm-0.8-0.9c0 0.3-0.3 0.5-0.5 0.5-0.4 0-0.7-0.2-0.7-0.5 0-0.3 0.3-0.5 0.7-0.5 0.2 0 0.5 0.2 0.5 0.5zm-1.3-0.6c0 0.3-0.3 0.6-0.6 0.6-0.3 0-0.6-0.3-0.6-0.6 0-0.2 0.3-0.4 0.6-0.4 0.3 0 0.6 0.2 0.6 0.4zm-1.3-0.1c0 0.3-0.3 0.5-0.6 0.5-0.3 0-0.5-0.2-0.5-0.5 0-0.2 0.2-0.5 0.5-0.5 0.3 0 0.6 0.3 0.6 0.5zm-1.2 0.1c0 0.3-0.3 0.5-0.6 0.5-0.3 0-0.6-0.2-0.6-0.5 0-0.3 0.3-0.5 0.6-0.5 0.3 0 0.6 0.2 0.6 0.5zm-3.7-0.5c0.3 0 0.5 0.2 0.5 0.5 0 0.3-0.2 0.5-0.5 0.5-0.3 0-0.6-0.2-0.6-0.5 0-0.3 0.3-0.5 0.6-0.5zm-1.3-0.1c0.3 0 0.6 0.3 0.6 0.5 0 0.3-0.3 0.5-0.6 0.5-0.3 0-0.5-0.2-0.5-0.5 0-0.2 0.2-0.5 0.5-0.5zm-2.8 5.6l0.4-0.8c-2.4-2.6 2-4.7 4.1-3.3v0.1q-0.1-0.1-0.1-0.1v0.3c-1.5-1.2-5.9 0.4-3.7 2.9l-0.5 1.4zm4.5-4.1c0.5 0.9 0.9 2.5 0.1 3.4l0.7 0.5-0.1 0.3-1-0.9c1.1-0.8 0.4-2 0.3-2.9v-0.1q0 0 0 0zm-4.2-0.9c0.3 0 0.6 0.2 0.6 0.5 0 0.3-0.3 0.5-0.6 0.5q-0.1 0-0.2 0-0.1 0-0.2-0.1 0-0.1-0.1-0.2 0-0.1 0-0.2c0-0.3 0.2-0.5 0.5-0.5zm-0.9 1c0.2 0 0.4 0.2 0.4 0.4 0 0.3-0.2 0.5-0.4 0.5-0.3 0-0.5-0.2-0.5-0.5 0-0.2 0.2-0.4 0.5-0.4zm-0.2 1.3c0.3 0 0.5 0.2 0.5 0.4 0 0.3-0.2 0.5-0.5 0.5-0.3 0-0.4-0.2-0.4-0.5 0-0.2 0.1-0.4 0.4-0.4zm0.3 1.1c0.2 0 0.4 0.1 0.4 0.3 0 0.2-0.2 0.4-0.4 0.4-0.2 0-0.4-0.2-0.4-0.4 0-0.2 0.2-0.3 0.4-0.3zm0.3 0.8c0.2 0 0.4 0.1 0.4 0.4q0 0 0 0.1-0.1 0.1-0.1 0.1-0.1 0.1-0.1 0.1-0.1 0-0.2 0c-0.2 0-0.4-0.1-0.4-0.3 0-0.3 0.2-0.4 0.4-0.4zm-1.7-3.6c0.4 0 0.6 0.2 0.6 0.5 0 0.2-0.2 0.5-0.6 0.5-0.3 0-0.5-0.3-0.5-0.5 0-0.3 0.2-0.5 0.5-0.5zm-1.1 0.1c0.3 0 0.6 0.2 0.6 0.5 0 0.2-0.3 0.5-0.6 0.5-0.3 0-0.5-0.3-0.5-0.5 0-0.3 0.2-0.5 0.5-0.5zm-1.2 0.2c0.3 0 0.6 0.2 0.6 0.4 0 0.3-0.3 0.5-0.6 0.5-0.3 0-0.6-0.2-0.6-0.5 0-0.2 0.3-0.4 0.6-0.4zm-1.4 5.8l0.4-1c-2.8-3.2 1.6-4.1 3.9-4.1v0.5c-2.5-0.6-6 1.2-3.6 3.6l-0.4 1.1zm0.1-5.4c0.3 0 0.6 0.2 0.6 0.5 0 0.3-0.3 0.5-0.6 0.5-0.3 0-0.6-0.2-0.6-0.5 0-0.3 0.3-0.5 0.6-0.5zm-1.3 3.4c0.3 0 0.6 0.2 0.6 0.4 0 0.3-0.3 0.5-0.6 0.5-0.3 0-0.5-0.2-0.5-0.5 0-0.2 0.2-0.4 0.5-0.4zm-0.1-1.2c0.3 0 0.6 0.2 0.6 0.5 0 0.3-0.3 0.5-0.6 0.5q-0.1 0-0.2 0-0.1-0.1-0.2-0.2-0.1 0-0.1-0.1-0.1-0.1-0.1-0.2c0-0.3 0.3-0.5 0.6-0.5zm0.5 2.5c0.3 0 0.6 0.3 0.6 0.5 0 0.3-0.3 0.5-0.6 0.5-0.3 0-0.5-0.2-0.5-0.5 0-0.2 0.2-0.5 0.5-0.5zm25.1-0.9c0 0.3-0.3 0.5-0.7 0.5-0.3 0-0.5-0.2-0.5-0.5 0-0.2 0.2-0.4 0.5-0.4 0.4 0 0.7 0.2 0.7 0.4zm-6.7-0.5c0 0.2-0.3 0.4-0.5 0.4q-0.1 0-0.2-0.1l-0.2-0.3q0 0 0 0c0-0.2 0.2-0.3 0.4-0.3 0.2 0 0.5 0.1 0.5 0.3zm-10.4-5c0.3 0 0.5 0.2 0.5 0.4 0 0.3-0.2 0.6-0.5 0.6q-0.1 0-0.2 0-0.1-0.1-0.2-0.2-0.1 0-0.1-0.1-0.1-0.1-0.1-0.3c0-0.2 0.3-0.4 0.6-0.4zm-8.2 2.7c0.3 0 0.5 0.2 0.5 0.5 0 0.2-0.2 0.5-0.5 0.5-0.3 0-0.6-0.3-0.6-0.5 0-0.3 0.3-0.5 0.6-0.5zm12.4-4.4q0 0 0.1 0.1v-0.6h0.5v-0.3h-0.5v-0.4h-0.3v0.5h-0.5v0.2h0.5v0.6q0.1 0 0.2-0.1zm0 2.8c-0.4-0.4-0.7-0.5-0.9-1h1.6l0.1-0.2h-0.7v-1.5c1.4 0.9 0.7 1.9-0.1 2.7zm-0.9-1.4c0-0.6 0.2-1 0.7-1.3v1.5h-0.7q0-0.1 0-0.2zm0 0.2v0.2q0-0.1 0-0.2z"/><path fill-rule="evenodd" class="m" d="m123.1 47.5c-0.3-0.1-1.1 0-1.3 0.1 0.1-0.2 0.3-0.3 0.5-0.4-0.3-0.2-0.3-0.3-0.5-0.4 0.2 0 0.5-0.1 0.6-0.1 0.2-0.1 0.3-0.2 0.1-0.5 0.4 0.3 0.8 0.5 0.9 0.2 0.4-1 1.8-0.9 2.2 0.1-0.5 0-2.5-0.3-2.5 1zm-5.2-0.9h-1.3l0.4-0.4-0.8-0.4 0.9-0.2-0.3-0.6 0.9 0.4-0.2-1.2 0.6 0.3 0.4-0.6 0.3 0.6 0.7-0.1-0.6 1.1h1.2l-0.5 0.4 0.8 0.4-1 0.1 0.2 0.5zm-4.4-0.7l-1.8 0.3 0.4-0.5-1.4-0.5 1.3-0.2-0.4-0.7 1.2 0.5-0.5-1.6 0.7 0.4 0.3-1.1 0.5 1.1 0.6-0.5-0.3 1.8 1.3-0.4-0.6 0.6 1.2 0.4-1.1 0.3 0.3 0.6zm-6.9 0.8l0.1-0.5-1-0.2 0.8-0.3-0.5-0.5 1.2 0.1-0.6-1.1 0.7 0.1 0.2-0.7 0.5 0.6 0.6-0.3-0.3 1.2 1-0.3-0.3 0.6 0.9 0.1-0.8 0.4 0.3 0.4-1.2 0.1zm-5.5-0.6c0.5-0.9 1.8-1.1 2.2 0 0.1 0.3 0.5 0 0.9-0.2-0.2 0.3-0.1 0.4 0.1 0.5 0.1 0 0.4 0 0.6 0-0.2 0.2-0.2 0.2-0.4 0.5 0.1 0.1 0.4 0.2 0.5 0.3-0.3-0.1-1-0.2-1.3-0.1-0.1-1.3-2-1-2.6-1z"/><path fill-rule="evenodd" class="f" d="m103.5 46.8c0 0.6-0.5 0.7-0.9 0.4-0.2-0.4-0.1-0.6 0.6-0.6 0.1 0 0.3 0 0.3 0.2z"/><path fill-rule="evenodd" class="i" d="m105.8 46.1c-1.2 0-0.1 1.4 0.3 0.5 0-0.3-0.2-0.5-0.3-0.5z"/><path fill-rule="evenodd" class="f" d="m107.7 45.2c-0.4 0.4-0.2 1.2 0.6 0.9 0.6-0.3-0.4-1-0.6-0.9z"/><path fill-rule="evenodd" class="i" d="m110.8 45.3c-0.3-0.1-0.8 0.3-0.5 0.6 0.9 0.7 1-0.2 0.5-0.6z"/><path fill-rule="evenodd" class="f" d="m114 45.4c-0.4 0.5-1.2 0.2-1.1-0.3 0-0.3 0.6-0.3 0.7-0.3 0.3 0.1 0.4 0.3 0.4 0.6z"/><path fill-rule="evenodd" class="i" d="m116.2 45.5c-1.3 0 0 1.2 0.4 0.4 0-0.1-0.2-0.4-0.4-0.4z"/><path fill-rule="evenodd" class="f" d="m118.4 45.5c0.4 0.3 0.3 1.1-0.6 0.9-0.5-0.3 0.3-1 0.6-0.9z"/><path fill-rule="evenodd" class="i" d="m121 46.4c1.1 0 0 1.3-0.3 0.4 0-0.2 0-0.4 0.3-0.4z"/><path fill-rule="evenodd" class="f" d="m123.5 47c0.7 0 0.9 0.2 0.7 0.5-0.3 0.4-0.9 0.2-0.9-0.4 0-0.1 0.1-0.1 0.2-0.1z"/><path fill-rule="evenodd" class="i" d="m107.3 49.1c0.2 0 0.4 0 0.4 0.2 0 0.2-0.1 0.4-0.3 0.4-0.2 0.1-0.4 0-0.4-0.1-0.1-0.2 0.1-0.4 0.3-0.5zm12.4 0.5c0 0.1-0.2 0.2-0.3 0.1-0.3 0-0.4-0.2-0.4-0.4 0.1-0.2 0.2-0.2 0.4-0.2 0.2 0.1 0.3 0.3 0.3 0.5zm-8.4-0.9c0.2 0 0.3 0.2 0.3 0.3 0 0.2-0.1 0.3-0.3 0.3-0.1 0-0.3-0.1-0.3-0.3 0-0.1 0.2-0.3 0.3-0.3zm4.3-0.1q0.1 0 0.1 0.1 0.1 0 0.1 0.1 0 0 0 0.1c0 0.1-0.1 0.2-0.3 0.2-0.2 0-0.3-0.1-0.3-0.2 0-0.2 0.1-0.3 0.3-0.3q0.1 0 0.1 0z"/><path fill-rule="evenodd" class="t" d="m109.3 48.8c0.6-0.1 1 0 1.1 0.1 0 0.2-0.5 0.4-1.1 0.5-0.5 0-1 0-1-0.2-0.1-0.1 0.4-0.3 1-0.4zm9.3 0.4c-0.1 0.2-0.5 0.2-1.1 0.2-0.6-0.1-1.1-0.3-1-0.5 0-0.1 0.5-0.2 1-0.1 0.6 0.1 1.1 0.3 1.1 0.4z"/><path fill-rule="evenodd" class="f" d="m113.5 48.5c0.5 0 1 0.2 1 0.3 0 0.2-0.5 0.3-1.1 0.3-0.6-0.1-1-0.2-1-0.4 0-0.1 0.5-0.2 1.1-0.2zm-7.2 1.2l-0.5 0.6-0.6-0.4 0.5-0.6zm14.9-0.3l0.5 0.6-0.6 0.3-0.5-0.6z"/><path fill-rule="evenodd" class="r" d="m129.3 51.7c0 0.4 3.4 0.4 3.5 0-0.3-0.5-3.4-0.5-3.5 0z"/><path fill-rule="evenodd" class="e" d="m132.9 51.2c-1.2-0.4-3-0.2-3.7-0.1-0.1 0.1-0.3 0.2-0.7-1 0-0.5 0.8-0.8 1.2-0.5 0.3-0.4 1-0.5 1.3-0.2 0.5-0.3 1.2-0.1 1.4 0.3 0.5-0.4 1.2-0.1 1.2 0.3-0.1 0.6-0.4 1.2-0.7 1.2z"/><path fill-rule="evenodd" class="s" d="m129.4 51.7c0.5-0.4 3-0.3 3.1-0.1 0.1 0.4-3.2 0.3-3.1 0.1z"/><path fill-rule="evenodd" class="r" d="m129.3 51.6l-0.1-0.3c1.2-0.3 2.6-0.3 3.7 0l-0.2 0.3c-0.1-0.4-3.2-0.4-3.4 0z"/><path fill-rule="evenodd" class="i" d="m132.8 51.1c0.1 0 0.1 0.1 0.1 0.1 0 0-0.1 0.1-0.1 0-1.3-0.2-2.3-0.2-3.6 0-0.1 0-0.1 0-0.1-0.1q0.1 0 0.1 0c1-0.2 2.3-0.2 3.6 0zm-3.7 0q0 0 0 0c-0.2 0.1-0.4-0.1-0.4-0.3 0 0 0.1 0 0.1 0 0.2 0.3 0.5 0.2 0.5-0.1 0.2 0.3 0.4 0.2 0.5-0.1 0.3 0.5 0.6 0.1 0.6 0 0.3 0.3 0.6 0.2 0.7-0.1 0.2 0.5 0.6 0.2 0.7 0 0 0.4 0.2 0.4 0.4 0.2 0.2 0.4 0.4 0.3 0.6 0.1 0.1 0.2 0.1 0.4 0.5 0 0 0.2-0.2 0.3-0.3 0.4-0.2 0-0.1-0.2-0.3-0.2q-0.1 0-0.1 0-0.1 0-0.2 0 0 0-0.1 0 0-0.1-0.1-0.1c-0.2 0.1-0.4 0.1-0.5-0.1-0.3 0.2-0.6 0.1-0.7 0-0.2 0.2-0.3 0.2-0.6 0-0.2 0.3-0.5 0.2-0.6 0 0 0.3-0.3 0.2-0.4 0.1 0 0.1-0.1 0.1-0.2 0.2q0 0 0 0 0 0-0.1 0zm1.9-2.2c0.1 0 0.1 0.1 0.1 0.1 0 0 0 0-0.1 0 0 0 0 0 0 0 0 0 0-0.1 0-0.1zm0 0.2c0.1 0 0.1 0 0.1 0.1 0 0 0 0-0.1 0 0 0 0 0 0 0 0-0.1 0-0.1 0-0.1zm0 0.2c0.1 0 0.1 0 0.1 0 0 0.1 0 0.1-0.1 0.1 0 0-0.1 0-0.1-0.1 0 0 0.1 0 0.1 0zm0 0.2c0.1 0 0.1 0 0.1 0.1 0 0 0 0.1-0.1 0.1 0 0-0.1-0.1-0.1-0.1 0-0.1 0.1-0.1 0.1-0.1zm2.9 0.8q0 0 0 0 0 0 0 0.1 0 0 0 0 0 0-0.1 0-0.1 0-0.1-0.1c0-0.1 0-0.2 0.1-0.2 0.1 0 0.1 0.1 0.1 0.2zm-0.3 0l-0.1-0.2c0.6-0.6-0.3-1-0.8-0.9l-0.1-0.1c0.6 0 1.6 0.2 0.9 1l0.1 0.2zm0.5-0.6q0 0.1-0.1 0.1c-0.1 0-0.1-0.1-0.1-0.1q0 0 0-0.1 0 0 0 0 0 0 0.1 0 0 0 0 0 0.1 0 0.1 0.1zm0-0.3c0 0-0.1 0.1-0.2 0.1 0 0-0.1-0.1-0.1-0.1 0-0.1 0.1-0.1 0.1-0.1 0.1 0 0.2 0 0.2 0.1zm-0.3-0.2c0 0-0.1 0.1-0.1 0.1q-0.2 0-0.2-0.1 0-0.2 0.2-0.2c0 0 0.1 0.1 0.1 0.2zm-0.3-0.1c0 0-0.1 0.1-0.1 0.1-0.1 0-0.2-0.1-0.2-0.1 0-0.1 0.1-0.1 0.2-0.1 0 0 0.1 0 0.1 0.1zm-0.3-0.1q0 0.1-0.1 0.1c-0.1 0-0.1 0-0.1-0.1q0 0 0 0 0 0 0 0 0-0.1 0.1-0.1 0 0 0 0 0.1 0 0.1 0.1zm-0.2 0q0 0.1-0.2 0.1c-0.1 0-0.1 0-0.1-0.1 0-0.1 0-0.1 0.1-0.1q0.2 0 0.2 0.1zm-0.7 1l-0.1-0.3c0.5-0.6-0.4-0.9-0.8-0.7v-0.1q0 0.1-0.1 0.1v-0.1c0.5-0.3 1.6 0.2 1 0.8l0.1 0.2zm-1-1v0.1c0 0.2-0.2 0.5 0.1 0.7l-0.3 0.2v-0.1l0.2-0.1c-0.2-0.2-0.1-0.5 0-0.7q0 0 0-0.1zm1.2 0.6q0 0 0.1 0 0 0 0 0 0 0.1 0 0.1c0 0-0.1 0-0.1 0-0.1 0-0.1 0-0.1 0q0 0 0-0.1 0 0 0 0 0 0 0.1 0 0 0 0 0 0 0 0 0zm0.2-0.2c0 0.1-0.1 0.1-0.2 0.1 0 0-0.1 0-0.1-0.1 0 0 0.1-0.1 0.1-0.1 0.1 0 0.2 0.1 0.2 0.1zm-0.1-0.3q0 0.1-0.1 0.1c-0.1 0-0.1 0-0.1-0.1 0 0 0 0 0.1 0q0.1 0 0.1 0zm-0.2-0.2c0 0.1-0.1 0.2-0.1 0.2-0.1 0-0.2-0.1-0.2-0.2 0 0 0.1-0.1 0.2-0.1 0 0 0.1 0.1 0.1 0.1zm-0.3-0.1q0 0.1-0.1 0.1-0.2 0-0.2-0.1c0 0 0.1-0.1 0.2-0.1 0 0 0.1 0.1 0.1 0.1zm-0.3 0c0 0-0.1 0.1-0.1 0.1-0.1 0-0.2-0.1-0.2-0.1 0-0.1 0.1-0.1 0.2-0.1 0 0 0.1 0 0.1 0.1zm-0.3 0c0 0-0.1 0.1-0.1 0.1-0.1 0-0.1-0.1-0.1-0.1 0-0.1 0-0.1 0.1-0.1 0 0 0.1 0 0.1 0.1zm-0.8-0.1c0 0 0.1 0 0.1 0.1 0 0-0.1 0.1-0.1 0.1q-0.2 0-0.2-0.1 0-0.1 0.2-0.1zm-1 1.3q0-0.1 0-0.1l0.1-0.1q-0.2-0.2-0.2-0.3 0-0.1 0-0.1 0 0 0 0c0.1-0.4 0.8-0.7 1.1-0.4 0.1 0.2 0.3 0.6 0.1 0.8l0.1 0.1v0.1l-0.2-0.2c0.2-0.2 0.1-0.5 0-0.7-0.3-0.3-1.3 0-0.8 0.6l-0.1 0.3zm0.4-1.3c0 0 0.1 0.1 0.1 0.1q0 0.2-0.1 0.2c-0.1 0-0.2-0.1-0.2-0.2 0 0 0.1-0.1 0.2-0.1zm-0.3 0.2c0 0 0.1 0 0.1 0.1 0 0-0.1 0.1-0.1 0.1-0.1 0-0.2-0.1-0.2-0.1q0-0.1 0.2-0.1zm-0.3 0.2c0.1 0 0.2 0 0.2 0.1 0 0-0.1 0.1-0.2 0.1 0 0-0.1-0.1-0.1-0.1 0-0.1 0.1-0.1 0.1-0.1zm0 0.3q0.1 0 0.1 0.1 0 0 0 0 0 0.1-0.1 0.1c-0.1 0-0.1-0.1-0.1-0.1 0-0.1 0-0.1 0.1-0.1zm0.1 0.2c0 0 0.1 0.1 0.1 0.1 0 0.1-0.1 0.1-0.1 0.1-0.1 0-0.1 0-0.1-0.1 0 0 0-0.1 0.1-0.1zm0 0.2c0.1 0 0.1 0.1 0.1 0.1v0.1q0 0-0.1 0c0 0-0.1 0-0.1-0.1 0 0 0.1-0.1 0.1-0.1zm-0.4-0.8q0.2 0 0.2 0.1 0 0.1-0.2 0.1 0 0 0 0 0 0-0.1 0 0 0 0 0 0-0.1 0-0.1 0-0.1 0.1-0.1zm-0.2 0q0.1 0 0.1 0.1 0 0.1-0.1 0.1c-0.1 0-0.2 0-0.2-0.1 0 0 0.1-0.1 0.2-0.1zm-0.3 0.1c0.1 0 0.1 0 0.1 0.1q0 0 0 0 0 0 0 0 0 0.1 0 0.1-0.1 0-0.1 0-0.1 0-0.1-0.1 0-0.1 0.1-0.1zm-0.3 1.3l0.1-0.2c-0.7-0.8 0.3-1 0.9-1v0.1c-0.6-0.1-1.4 0.3-0.9 0.9v0.2zm0-1.3q0.1 0 0.1 0.2 0 0 0 0 0 0 0 0 0 0.1-0.1 0.1 0 0 0 0-0.1 0-0.1-0.1 0-0.2 0.1-0.2zm-0.3 0.8c0.1 0 0.1 0.1 0.1 0.1 0 0.1 0 0.1-0.1 0.1q-0.1 0-0.1-0.1 0-0.1 0.1-0.1zm0-0.2q0.1 0 0.1 0.1 0 0.1-0.1 0.1-0.1 0-0.1 0 0 0 0-0.1 0 0 0 0 0 0 0 0c0-0.1 0-0.1 0.1-0.1zm0.1 0.5c0.1 0 0.1 0.1 0.1 0.2 0 0 0 0.1-0.1 0.1 0 0-0.1-0.1-0.1-0.1 0-0.1 0.1-0.2 0.1-0.2zm5.9-0.2c0 0.1-0.1 0.1-0.2 0.1q-0.1 0-0.1-0.1 0-0.1 0.1-0.1c0.1 0 0.2 0.1 0.2 0.1zm-1.6-0.1c0 0.1-0.1 0.1-0.1 0.1-0.1 0-0.1 0-0.1-0.1 0 0 0-0.1 0.1-0.1 0 0 0.1 0.1 0.1 0.1zm-2.1-1.2c0 0 0.1 0.1 0.1 0.1 0 0.1-0.1 0.1-0.1 0.1q-0.2 0-0.2-0.1 0-0.1 0.2-0.1zm-2.2 0.7c0 0 0.1 0 0.1 0.1 0 0-0.1 0.1-0.1 0.1q-0.2 0-0.2-0.1 0-0.1 0.2-0.1zm2.9-0.4c-0.1-0.1-0.2-0.1-0.3-0.2h0.4q0 0.1-0.1 0.2zm-0.3-0.3c0-0.2 0.1-0.3 0.2-0.3v0.3h-0.2q0 0 0 0zm0.3 0v-0.4c0.1 0.2 0.2 0.3 0.1 0.4zm0-0.5h0.1-0.1v-0.1 0.1h-0.2 0.2v0.2q0-0.1 0-0.1zm-0.2 0.5v0.1q0 0 0-0.1zm0.4 0.1v-0.1q0 0.1 0 0.1z"/><path fill-rule="evenodd" class="m" d="m133.3 50.9c-0.1-0.1-0.3 0-0.3 0 0 0 0.1-0.1 0.1-0.1-0.1-0.1-0.1-0.1-0.1-0.1h0.1c0.1 0 0.1-0.1 0.1-0.1 0.1 0 0.1 0.1 0.2 0 0.1-0.2 0.4-0.2 0.5 0-0.1 0-0.6 0-0.6 0.3zm-1.2-0.2l-0.3-0.1h0.1l-0.2-0.1 0.2-0.1-0.1-0.1 0.2 0.1v-0.3l0.1 0.1 0.1-0.2 0.1 0.2 0.2-0.1-0.2 0.3h0.3l-0.1 0.1 0.2 0.1h-0.3l0.1 0.1zm-1-0.2l-0.5 0.1 0.1-0.1-0.3-0.1 0.3-0.1-0.1-0.1 0.3 0.1-0.1-0.4 0.1 0.1 0.1-0.2 0.1 0.2 0.2-0.1-0.1 0.4 0.3-0.1-0.1 0.2h0.3l-0.3 0.1v0.2zm-1.6 0.2v-0.1l-0.2-0.1 0.2-0.1-0.1-0.1h0.2l-0.1-0.2h0.2v-0.1l0.1 0.1 0.1-0.1v0.3l0.2-0.1v0.2h0.2l-0.2 0.1 0.1 0.1h-0.3zm-1.3-0.1c0.1-0.2 0.4-0.3 0.5 0 0.1 0.1 0.1 0 0.2-0.1 0 0.1 0 0.1 0.1 0.2h0.1c0 0 0 0-0.1 0.1 0.1 0 0.1 0 0.1 0.1 0-0.1-0.2-0.1-0.3-0.1 0-0.3-0.4-0.2-0.6-0.2z"/><path fill-rule="evenodd" class="f" d="m128.7 50.7c0 0.2-0.1 0.2-0.2 0.1 0-0.1 0-0.1 0.2-0.1 0 0 0 0 0 0z"/><path fill-rule="evenodd" class="i" d="m129.3 50.6c-0.3 0-0.1 0.3 0 0.1 0-0.1 0-0.1 0-0.1z"/><path fill-rule="evenodd" class="f" d="m129.7 50.3c-0.1 0.1 0 0.3 0.1 0.3 0.2-0.1 0-0.3-0.1-0.3z"/><path fill-rule="evenodd" class="i" d="m130.4 50.4c0-0.1-0.1 0-0.1 0.1 0.2 0.2 0.3 0 0.1-0.1z"/><path fill-rule="evenodd" class="f" d="m131.1 50.3q0 0 0 0 0.1 0 0.1 0 0 0.1 0 0.1c-0.1 0.1-0.3 0-0.3-0.1 0 0 0.2-0.1 0.2 0q0 0 0 0z"/><path fill-rule="evenodd" class="i" d="m131.7 50.4c-0.3 0 0 0.3 0.1 0.1 0 0-0.1-0.1-0.1-0.1z"/><path fill-rule="evenodd" class="f" d="m132.2 50.4c0.1 0.1 0.1 0.3-0.1 0.2-0.1 0 0-0.2 0.1-0.2z"/><path fill-rule="evenodd" class="i" d="m132.8 50.6c0.3 0 0 0.3-0.1 0.1 0 0 0-0.1 0.1-0.1z"/><path fill-rule="evenodd" class="f" d="m133.4 50.8q0.3 0 0.2 0.1c-0.1 0.1-0.3 0-0.3-0.1z"/><path fill-rule="evenodd" class="i" d="m129.6 51.3h0.1q0 0 0 0 0 0 0 0.1 0 0 0 0-0.1 0-0.1 0c0 0-0.1 0-0.1-0.1 0 0 0 0 0.1 0zm2.9 0c0 0.1-0.1 0.1-0.1 0.1 0 0-0.1-0.1-0.1-0.1h0.1c0.1 0 0.1 0 0.1 0zm-2-0.1c0.1 0 0.1 0 0.1 0 0 0.1 0 0.1-0.1 0.1 0 0 0 0 0-0.1zm1 0c0 0.1 0 0.1 0 0.1-0.1 0-0.1 0-0.1-0.1 0 0 0 0 0.1 0 0 0 0 0 0 0z"/><path fill-rule="evenodd" class="t" d="m130.1 51.2c0.1 0 0.2 0 0.2 0 0 0.1-0.1 0.1-0.2 0.1-0.1 0-0.3 0-0.3 0 0 0 0.1-0.1 0.3-0.1zm1.9 0c-0.1 0-0.3 0-0.3 0 0 0.1 0.1 0.1 0.3 0.1 0.1 0 0.2 0 0.2 0z"/><path fill-rule="evenodd" class="f" d="m131.1 51.1c0.1 0 0.2 0.1 0.2 0.1 0 0-0.1 0.1-0.2 0.1-0.2 0-0.3-0.1-0.3-0.1 0-0.1 0.1-0.1 0.3-0.1zm-1.7 0.3l-0.1 0.1-0.2-0.1 0.1-0.1zm3.5-0.1l0.1 0.1-0.1 0.1-0.2-0.1z"/><path fill-rule="evenodd" class="r" d="m94.1 51.7c0 0.4 3.4 0.4 3.5 0-0.2-0.5-3.5-0.5-3.5 0z"/><path fill-rule="evenodd" class="e" d="m97.7 51.2c-1.2-0.4-3-0.2-3.7-0.1-0.1 0.1-0.4 0.2-0.7-1 0-0.5 0.8-0.8 1.2-0.5 0.2-0.4 1-0.5 1.3-0.2 0.5-0.3 1.2-0.1 1.4 0.3 0.5-0.4 1.2-0.1 1.2 0.3-0.1 0.6-0.4 1.2-0.7 1.2z"/><path fill-rule="evenodd" class="s" d="m94.2 51.7c0.4-0.4 3-0.3 3.2-0.1 0 0.4-3.3 0.3-3.2 0.1z"/><path fill-rule="evenodd" class="r" d="m94 51.6v-0.3c1.2-0.3 2.7-0.3 3.7 0l-0.1 0.3c-0.2-0.4-3.4-0.4-3.6 0z"/><path fill-rule="evenodd" class="i" d="m97.6 51.1q0 0 0.1 0.1 0 0 0 0 0 0 0 0c0 0 0 0.1-0.1 0-1.3-0.2-2.3-0.2-3.6 0-0.1 0-0.1 0-0.1-0.1q0 0 0.1 0c1-0.2 2.3-0.2 3.6 0zm-3.7 0q0 0 0 0c-0.2 0.1-0.4-0.1-0.4-0.3 0 0 0 0 0 0 0.2 0.3 0.5 0.2 0.6-0.1 0.2 0.3 0.4 0.2 0.5-0.1 0.3 0.5 0.6 0.1 0.6 0 0.2 0.3 0.5 0.2 0.6-0.1 0.2 0.5 0.6 0.2 0.7 0q0.2 0.6 0.5 0.2c0.2 0.4 0.4 0.3 0.7 0.1 0 0.2 0 0.4 0.4 0 0 0.2-0.2 0.3-0.3 0.4q-0.1 0-0.1 0 0 0 0 0c-0.1-0.1-0.1-0.2-0.2-0.2-0.2 0.1-0.4 0-0.5-0.1-0.2 0.1-0.4 0.1-0.6-0.1-0.2 0.2-0.5 0.1-0.6 0q-0.2 0.3-0.6 0c-0.2 0.3-0.5 0.2-0.6 0 0 0.3-0.4 0.2-0.5 0.1 0 0.1 0 0.1-0.1 0.2q0 0-0.1 0 0 0 0 0zm1.9-2.2c0 0 0 0.1 0 0.1 0 0 0 0 0 0-0.1 0-0.1 0-0.1 0 0 0 0-0.1 0.1-0.1zm0 0.2c0 0 0 0 0 0.1 0 0 0 0 0 0-0.1 0-0.1 0-0.1 0 0-0.1 0-0.1 0.1-0.1zm0 0.2c0 0 0.1 0 0.1 0 0 0.1-0.1 0.1-0.1 0.1-0.1 0-0.1 0-0.1-0.1 0 0 0 0 0.1 0zm0 0.2q0.1 0 0.1 0.1 0 0.1-0.1 0.1c-0.1 0-0.1-0.1-0.1-0.1 0-0.1 0-0.1 0.1-0.1zm3 0.8c0 0-0.1 0.1-0.2 0.1 0 0-0.1-0.1-0.1-0.1 0-0.1 0.1-0.2 0.1-0.2 0.1 0 0.2 0.1 0.2 0.2zm-0.4 0l-0.1-0.2 0.2 0.2zm-0.9-1.1l-0.1-0.1c0.6 0 1.5 0.2 1 0.9 0.4-0.5-0.4-0.9-0.9-0.8zm0.9 0.8q0 0-0.1 0.1 0.1-0.1 0.1-0.1zm0.5-0.3c0 0-0.1 0.1-0.1 0.1q-0.2 0-0.2-0.1 0-0.1 0.2-0.1c0 0 0.1 0 0.1 0.1zm-0.1-0.3q0 0.1-0.1 0.1c-0.1 0-0.1-0.1-0.1-0.1 0-0.1 0-0.1 0.1-0.1q0.1 0 0.1 0.1zm-0.2-0.2q0 0.1-0.2 0.1c-0.1 0-0.1-0.1-0.1-0.1 0-0.1 0-0.2 0.1-0.2q0.2 0 0.2 0.2zm-0.3-0.1q0 0.1-0.2 0.1c0 0-0.1-0.1-0.1-0.1q0 0 0-0.1 0 0 0 0 0.1 0 0.1 0 0 0 0 0 0.2 0 0.2 0.1zm-0.3-0.1c0 0.1-0.1 0.1-0.1 0.1q-0.2 0-0.2-0.1 0-0.1 0.2-0.1c0 0 0.1 0.1 0.1 0.1zm-0.3 0q0 0 0 0.1 0 0 0 0 0 0-0.1 0 0 0 0 0-0.1 0-0.1-0.1 0-0.1 0.1-0.1 0.1 0 0.1 0.1zm-0.6 1l-0.1-0.3c0.5-0.6-0.5-0.9-0.9-0.7v-0.1q0 0.1 0 0.1 0 0-0.1 0v-0.1c0.4-0.2 1.2 0 1.2 0.5q0 0 0 0 0 0 0 0 0 0.2-0.1 0.3v0.1q0 0.1 0 0.1h0.1zm0.2-0.4q0 0 0 0 0 0 0 0 0.1 0.1 0.1 0.1c0 0-0.1 0-0.1 0-0.1 0-0.1 0-0.1 0q0 0 0-0.1 0 0 0 0 0 0 0 0 0 0 0.1 0 0 0 0 0zm0.2-0.2c0 0.1-0.1 0.1-0.1 0.1q-0.2 0-0.2 0 0-0.1 0-0.1 0-0.1 0.2-0.1c0 0 0.1 0.1 0.1 0.1zm-0.1-0.3q0 0 0 0.1 0 0 0 0 0 0-0.1 0 0 0 0 0-0.1 0-0.1-0.1 0 0 0.1 0c0.1 0 0.1 0 0.1 0zm-0.2-0.2c0 0.1 0 0.2-0.1 0.2-0.1 0-0.1-0.1-0.1-0.2 0 0 0-0.1 0.1-0.1q0.1 0 0.1 0.1zm-0.3-0.1c0 0.1-0.1 0.1-0.1 0.1q-0.1 0-0.1-0.1c0 0 0-0.1 0.1-0.1 0 0 0.1 0.1 0.1 0.1zm-0.3 0q0 0.1-0.1 0.1c-0.1 0-0.2-0.1-0.2-0.1 0-0.1 0.1-0.1 0.2-0.1q0.1 0 0.1 0.1zm-0.3 0q0 0.1-0.2 0.1c0 0-0.1-0.1-0.1-0.1 0-0.1 0.1-0.1 0.1-0.1q0.2 0 0.2 0.1zm-1.7 1c-0.6-0.6 0.4-1.1 0.9-0.8v0.1q0-0.1 0-0.1c-0.4-0.2-1.3 0.2-0.9 0.7l-0.1 0.3h-0.1q0 0 0.1-0.1zm0.9-0.7c0.1 0.2 0.2 0.6 0 0.7l0.2 0.2-0.3-0.2c0.3-0.1 0.1-0.4 0.1-0.7q0 0 0 0zm-0.4-0.3q0.2 0 0.2 0.1 0 0-0.2 0.1c0 0-0.1-0.1-0.1-0.1 0-0.1 0.1-0.1 0.1-0.1zm-0.3 0c0.1 0 0.2 0.1 0.2 0.1q0 0.1-0.2 0.1-0.1 0-0.1-0.1c0 0 0.1-0.1 0.1-0.1zm-0.3 0.1q0.2 0 0.2 0.1c0 0.1-0.1 0.2-0.2 0.2-0.1 0-0.1-0.1-0.1-0.2 0 0 0-0.1 0.1-0.1zm-0.2 0.3c0.1 0 0.1 0 0.1 0q0 0 0 0 0 0.1 0 0.1 0 0 0 0-0.1 0-0.1 0-0.1 0-0.1-0.1 0-0.1 0.1 0zm0 0.2c0 0 0.1 0.1 0.1 0.1 0 0.1-0.1 0.1-0.1 0.1-0.1 0-0.1 0-0.1-0.1 0 0 0-0.1 0.1-0.1zm0 0.3c0.1 0 0.1 0 0.1 0.1 0 0 0 0-0.1 0 0 0 0 0 0 0 0-0.1 0-0.1 0-0.1zm0.1 0.2c0 0 0.1 0 0.1 0.1q0 0 0 0l-0.1 0.1c0 0-0.1-0.1-0.1-0.1 0-0.1 0.1-0.1 0.1-0.1zm-0.4-0.9c0.1 0 0.1 0.1 0.1 0.2 0 0 0 0.1-0.1 0.1 0 0-0.1-0.1-0.1-0.1 0-0.1 0.1-0.2 0.1-0.2zm-0.2 0.1c0 0 0.1 0 0.1 0.1q0 0 0 0-0.1 0-0.1 0 0 0 0 0 0 0.1 0 0.1-0.2-0.1-0.2-0.1 0-0.1 0.2-0.1zm-0.3 0c0 0 0.1 0.1 0.1 0.1 0 0.1-0.1 0.1-0.1 0.1-0.1 0-0.2 0-0.2-0.1 0 0 0.1-0.1 0.2-0.1zm-0.4 1.4l0.1-0.3c-0.6-0.7 0.4-0.9 0.9-0.9v0.1c-0.5-0.2-1.3 0.3-0.8 0.8l-0.1 0.3zm0.1-1.3q0.1 0 0.1 0.1 0 0.1-0.1 0.1-0.1 0-0.1 0 0 0 0 0 0 0 0-0.1 0 0 0 0 0-0.1 0.1-0.1zm-0.3 0.8q0.1 0 0.1 0.1 0 0-0.1 0.1c-0.1 0-0.1-0.1-0.1-0.1 0-0.1 0-0.1 0.1-0.1zm-0.1-0.3q0.2 0 0.2 0.1 0 0.1-0.2 0.1c0 0-0.1 0-0.1-0.1 0 0 0.1-0.1 0.1-0.1zm0.2 0.6c0.1 0 0.1 0.1 0.1 0.1q0 0.1-0.1 0.1c-0.1 0-0.2 0-0.2-0.1 0 0 0.1-0.1 0.2-0.1zm5.8-0.2q0 0-0.1 0.1c-0.1 0-0.1-0.1-0.1-0.1 0-0.1 0-0.1 0.1-0.1q0.1 0 0.1 0.1zm-1.5-0.1c0 0-0.1 0.1-0.1 0.1q0 0-0.1-0.1c0-0.1 0-0.1 0.1-0.1 0 0 0.1 0 0.1 0.1zm-1.3-0.9q0.1 0 0.1 0v0.1c-0.1 0.2-0.2 0.5 0 0.7l-0.2 0.2v-0.1l0.1-0.1c-0.1-0.2 0-0.5 0-0.8zm-0.6-0.3c0.1 0 0.1 0 0.1 0.1 0 0 0 0.1-0.1 0.1 0 0-0.1-0.1-0.1-0.1 0-0.1 0.1-0.1 0.1-0.1zm-2.5 0.6c0.1 0 0.2 0.1 0.2 0.1 0 0.1-0.1 0.1-0.2 0.1-0.1 0-0.1 0-0.1-0.1 0 0 0-0.1 0.1-0.1zm2.9-0.3c0-0.2-0.1-0.2-0.2-0.3h0.4q0 0.1-0.2 0.3zm-0.2-0.4c0-0.1 0.1-0.2 0.2-0.3v0.4h-0.2q0-0.1 0-0.1zm0.2 0.1v-0.4c0.2 0.1 0.3 0.2 0.2 0.4zm0-0.5h0.2v-0.1h-0.2v-0.1 0.1h-0.1v0.1h0.1v0.1q0 0 0 0zm-0.2 0.5q0 0 0 0zm0.5 0q-0.1 0-0.1 0z"/><path fill-rule="evenodd" class="m" d="m98.1 50.9c-0.1-0.1-0.2 0-0.3 0 0 0 0.1-0.1 0.1-0.1 0-0.1 0-0.1-0.1-0.1h0.2q0 0 0-0.1c0.1 0 0.2 0.1 0.2 0q0-0.1 0.1-0.1 0-0.1 0.1-0.1 0.1 0 0.2 0.1 0.1 0 0.1 0.1c-0.1 0-0.6 0-0.6 0.3zm-1.2-0.2l-0.3-0.1-0.2-0.1 0.3-0.1-0.1-0.1 0.3 0.1-0.1-0.3 0.1 0.1 0.2-0.2v0.2l0.2-0.1-0.2 0.3h0.3l-0.1 0.1 0.2 0.1h-0.2v0.1zm-1-0.2l-0.5 0.1 0.1-0.1-0.3-0.1 0.3-0.1-0.1-0.1 0.3 0.1-0.1-0.4 0.2 0.1v-0.2l0.1 0.2 0.2-0.1-0.1 0.4 0.4-0.1-0.2 0.2h0.3l-0.3 0.1 0.1 0.2zm-1.6 0.2v-0.1l-0.2-0.1 0.2-0.1-0.2-0.1h0.3l-0.1-0.2h0.1l0.1-0.1 0.1 0.1 0.1-0.1v0.3l0.2-0.1-0.1 0.2h0.2l-0.2 0.1 0.1 0.1h-0.3zm-1.3-0.1c0.2-0.2 0.5-0.3 0.6 0 0 0.1 0.1 0 0.2-0.1-0.1 0.1-0.1 0.1 0 0.2h0.1c0 0 0 0-0.1 0.1 0.1 0 0.1 0 0.1 0.1 0-0.1-0.2-0.1-0.3-0.1 0-0.3-0.4-0.2-0.6-0.2z"/><path fill-rule="evenodd" class="f" d="m93.5 50.7c0 0.2-0.1 0.2-0.2 0.1q-0.1-0.1 0.2-0.1z"/><path fill-rule="evenodd" class="i" d="m94 50.6c-0.2 0 0 0.3 0.1 0.1 0-0.1 0-0.1-0.1-0.1z"/><path fill-rule="evenodd" class="f" d="m94.5 50.3c-0.1 0.1-0.1 0.3 0.1 0.3 0.1-0.1-0.1-0.3-0.1-0.3z"/><path fill-rule="evenodd" class="i" d="m95.1 50.5q0 0 0 0 0-0.1 0-0.1 0 0 0.1 0 0 0 0 0c0.1 0.1 0.1 0.3-0.1 0.1z"/><path fill-rule="evenodd" class="f" d="m95.9 50.4c0 0.1-0.2 0-0.2-0.1 0 0 0.1-0.1 0.2 0 0 0 0 0 0 0.1z"/><path fill-rule="evenodd" class="i" d="m96.5 50.4c-0.3 0 0 0.3 0.1 0.1 0 0-0.1-0.1-0.1-0.1z"/><path fill-rule="evenodd" class="f" d="m97 50.4c0.1 0.1 0.1 0.3-0.1 0.2-0.1 0 0.1-0.2 0.1-0.2z"/><path fill-rule="evenodd" class="i" d="m97.6 50.6c0.3 0 0.1 0.3 0 0.1 0 0 0-0.1 0-0.1z"/><path fill-rule="evenodd" class="f" d="m98.2 50.8q0.2 0 0.2 0.1c-0.1 0.1-0.2 0-0.2-0.1z"/><path fill-rule="evenodd" class="i" d="m94.4 51.3h0.1q0 0 0 0 0 0 0 0.1-0.1 0-0.1 0 0 0 0 0c-0.1 0-0.1 0-0.1-0.1 0 0 0 0 0.1 0zm2.9 0c0 0.1 0 0.1-0.1 0.1 0 0 0-0.1 0-0.1h0.1zm-2-0.2c0 0 0 0.1 0 0.1 0 0 0 0 0 0-0.1 0-0.1 0-0.1 0 0 0 0-0.1 0.1-0.1zm1 0c0 0.1 0 0.1-0.1 0.1 0 0 0 0 0-0.1 0.1 0 0.1 0 0.1 0z"/><path fill-rule="evenodd" class="t" d="m94.8 51.2c0.2 0 0.3 0 0.3 0 0 0.1-0.1 0.1-0.2 0.1-0.2 0-0.3 0-0.3 0zm2 0c-0.2 0-0.3 0-0.3 0 0 0.1 0.1 0.1 0.2 0.1 0.2 0 0.4 0 0.4 0 0 0-0.1-0.1-0.3-0.1z"/><path fill-rule="evenodd" class="f" d="m95.8 51.1c0.2 0 0.3 0.1 0.3 0.1 0 0-0.1 0.1-0.3 0.1-0.1 0-0.2-0.1-0.2-0.1 0-0.1 0.1-0.1 0.2-0.1zm-1.7 0.3l-0.1 0.1-0.1-0.1 0.1-0.1zm3.5-0.1l0.1 0.1-0.1 0.1-0.1-0.1z"/><path fill-rule="evenodd" class="e" d="m113.2 65.4h12.3v10c0.2 2.7-3.4 3.8-5.7 4.7-3.5-1.1-4.8-2.5-6.6-4.7z"/><path fill-rule="evenodd" class="u" d="m118.7 67.3h1.3v1.8h-1.3zm2.4-1.5h1.9v1.3h-1.9zm-3.1 0.4v0.6l-0.4 0.4h-1.1l-0.3-0.3v-0.7l0.3-0.3h1.1zm-4 1.8h1.3v1.8h-1.3zm2.3 0.3l0.4-0.4 0.6-0.1 0.8 0.8 0.1 0.4-0.5 0.5h-0.4l-0.8-0.7zm6.3 0.5l-0.9 0.6h-0.4l-0.5-0.5 0.1-0.4 0.8-0.7h0.6l0.4 0.4zm0.6-0.8h1.3v1.8h-1.3zm-0.3 2.4v0.6l-0.3 0.4h-1.2l-0.3-0.3v-0.7l0.3-0.3h1.1zm-6.8-0.5h1.9v1.4h-1.9zm-2.1 1.5h1.3v1.8h-1.3zm4 1.2l-0.9 0.7h-0.4l-0.5-0.5v-0.4l0.9-0.8 0.5 0.1 0.4 0.4zm2.9-0.4l0.4-0.5 0.5-0.1 0.9 0.8v0.4l-0.4 0.6h-0.5l-0.9-0.7zm2.4-0.8h1.3v1.8h-1.3zm-4.6 2.1h1.3v1.8h-1.3zm4.3 3.7l-0.9 0.6-0.5-0.1-0.3-0.7 0.1-0.4 1-0.5 0.5 0.1 0.3 0.6zm-7-0.2l0.3-0.5 0.5-0.2 1 0.5 0.2 0.4-0.3 0.6-0.4 0.2-1-0.5z"/><path fill-rule="evenodd" class="m" d="m124.2 66.2v8c0 2.2-2.6 3.6-4.7 3.6-2.2 0-5.1-1.3-5.1-3.2v-8.4zm-0.7 8.3l-3.9-3.4v6.1c1.9 0.1 3.9-1.4 3.9-2.7zm-8.6-7.4v3.2h3.7zm8.6 3.1v-2.8l-3.3 2.8zm-8.5 4.4c0 1.2 2 2.7 3.9 2.7v-6zm4-7.9l-3.5-0.1 3.5 3zm4.5 6.8v-2.8h-3.3zm-8.6-2.8v2.9l3.5-2.9zm8.3-4h-3.6v3zm-3.6 4.1h0.6l-0.3-0.3 0.2-0.2h-0.4l-0.1-0.1v-0.4l-0.3 0.2-0.3-0.3v0.6h-0.1-0.3l0.2 0.1-0.5 0.4h0.7v0.5l0.4-0.3 0.2 0.1zm-0.2 0.2l-0.2-0.2h-0.2v-0.1l-0.2-0.2 0.1-0.2h0.1l0.3-0.3 0.3 0.2v0.1h0.1l0.2 0.2-0.3 0.3zm0.1-0.1h0.1v-0.5h-0.6v0.3l0.2 0.2z"/><path fill-rule="evenodd" class="v" d="m119.4 71.6c-0.6 0-1-0.5-1-1 0-0.6 0.4-1 1-1 0.5 0 0.9 0.4 0.9 1 0 0.5-0.4 1-0.9 1z"/><path fill-rule="evenodd" class="m" d="m123.8 70c0.4 0 0.6 0.2 0.6 0.5 0 0.3-0.2 0.6-0.6 0.6-0.3 0-0.6-0.3-0.6-0.6 0-0.3 0.3-0.5 0.6-0.5zm-4.4-4c0.3 0 0.6 0.2 0.6 0.5 0 0.3-0.3 0.6-0.6 0.6-0.4 0-0.6-0.3-0.6-0.6 0-0.3 0.2-0.5 0.6-0.5zm0 10.9c0.3 0 0.6 0.2 0.6 0.6 0 0.3-0.3 0.5-0.6 0.5-0.4 0-0.7-0.2-0.7-0.5 0-0.4 0.3-0.6 0.7-0.6zm-4.8-6.9c0.4 0 0.6 0.3 0.6 0.6 0 0.3-0.2 0.6-0.6 0.6-0.3 0-0.5-0.3-0.5-0.6q0-0.1 0-0.2 0.1-0.1 0.1-0.2 0.1-0.1 0.2-0.1 0.1-0.1 0.2-0.1z"/><path fill-rule="evenodd" class="w" d="m117.8 66.2v0.5l-0.3 0.3h-0.9l-0.2-0.3v-0.5l0.3-0.2h0.8zm4.9-0.1v0.5l-0.2 0.3h-0.9l-0.3-0.2v-0.6l0.3-0.2h0.8zm0.9 1.9h0.5l0.3 0.3v0.9l-0.2 0.2h-0.6l-0.2-0.2v-0.9zm-1.3 0.6l-0.6 0.5h-0.3l-0.4-0.4 0.1-0.3 0.6-0.6h0.4l0.3 0.4zm-3.3-1.2h0.5l0.3 0.2v1l-0.2 0.2h-0.6l-0.2-0.3v-0.8zm-2.5 0.9l0.3-0.4h0.4l0.6 0.6 0.1 0.3-0.4 0.4h-0.3l-0.6-0.6zm-2.2-0.2h0.5l0.3 0.2v1l-0.3 0.2h-0.5l-0.2-0.3v-0.8zm3.3 2.1v0.5l-0.2 0.2h-0.9l-0.3-0.2v-0.5l0.3-0.2h0.8zm5 0v0.5l-0.3 0.3h-0.9l-0.2-0.3v-0.5l0.3-0.2h0.8zm-1.8 1.8l0.4-0.3h0.4l0.7 0.5 0.1 0.3-0.4 0.4h-0.3l-0.7-0.5zm2.7-0.6h0.5l0.2 0.3v0.8l-0.2 0.3h-0.6l-0.2-0.3v-0.8zm-9.2 0h0.5l0.2 0.2v0.9l-0.2 0.2h-0.5l-0.3-0.2v-0.8zm3.4 0.9l-0.6 0.5h-0.4l-0.3-0.4v-0.3l0.7-0.6h0.3l0.4 0.4zm1.2 1.1h0.5l0.3 0.3v0.9l-0.3 0.2h-0.5l-0.2-0.2v-0.9zm3.7 3.5l-0.7 0.4-0.3-0.1-0.3-0.5 0.1-0.3 0.8-0.4 0.4 0.1 0.2 0.4zm-6.5 0l0.2-0.5 0.3-0.2 0.8 0.4 0.1 0.3-0.2 0.5-0.3 0.1-0.8-0.3z"/><path class="g" d="m113.2 52.3v23.2c-1.6 2.4-2.7 3.7-6.5 4.4"/><path class="g" d="m101.6 65.4h23.9"/><path class="g" d="m113 81.1c-3.2 0-10-1.5-11.4-5.6v-23.2h23.9v23.4c0.2 3.7-9.2 5.4-12.5 5.4z"/><path fill-rule="evenodd" class="f" d="m113.3 70.2c-2 0-3.6-2.1-3.6-4.7 0-2.6 1.6-4.7 3.6-4.7 2 0 3.6 2.1 3.6 4.7 0 2.6-1.6 4.7-3.6 4.7z"/><path fill-rule="evenodd" class="q" d="m113.3 68.8c-1.4 0-2.6-1.5-2.6-3.3 0-1.8 1.2-3.3 2.6-3.3 1.4 0 2.5 1.5 2.5 3.3 0 1.8-1.1 3.3-2.5 3.3z"/><path fill-rule="evenodd" class="i" d="m111.8 65c0.1-0.2 0-0.3 0-0.3-0.2-0.2-0.5-0.2-0.7 0 0-0.5 0.3-0.7 0.8-0.5-0.1-0.3 0-0.9 0.3-1.1 0.3 0.2 0.3 0.8 0.3 1.1 0.4-0.3 0.7 0 0.7 0.5-0.1-0.2-0.5-0.2-0.6 0 0 0-0.1 0.1 0 0.3 0.1 0.1 0 0.6-0.4 0.6-0.4 0-0.6-0.5-0.4-0.6zm2.2 0c0.1-0.2 0-0.3 0-0.3-0.1-0.2-0.5-0.2-0.7 0 0-0.5 0.4-0.7 0.8-0.5 0-0.3 0-0.9 0.3-1.1 0.3 0.2 0.4 0.8 0.3 1.1 0.4-0.3 0.8 0 0.8 0.5-0.2-0.2-0.6-0.2-0.7 0 0 0-0.1 0.1 0 0.3 0.1 0.1 0 0.6-0.4 0.6-0.4 0-0.6-0.5-0.4-0.6zm-1.1 2.8c0.1-0.1 0-0.2-0.1-0.3-0.1-0.1-0.4-0.1-0.6 0 0-0.4 0.3-0.6 0.7-0.4 0-0.3 0-0.9 0.3-1.2 0.4 0.3 0.4 0.9 0.4 1.2 0.3-0.3 0.7 0 0.7 0.4-0.2-0.1-0.5-0.1-0.6 0-0.1 0.1-0.2 0.2-0.1 0.3 0.2 0.1 0 0.6-0.4 0.6-0.4 0-0.5-0.5-0.3-0.6z"/><path class="g" d="m113.3 75.5c0.3 0.7 2.9 3.9 6.7 4.5"/><path fill-rule="evenodd" class="m" d="m107.5 61.2q0.3 0 0.5 0.1 0.2 0.1 0.3 0.2 0.2 0.2 0.3 0.4 0.1 0.2 0.1 0.4v1.4h-2.4v-1.4c0-0.6 0.5-1.1 1.2-1.1z"/><path fill-rule="evenodd" class="x" d="m107.5 61.5c0.5 0 0.9 0.4 0.9 0.9v1.4h-1.8v-1.4q0-0.2 0-0.4 0.1-0.1 0.2-0.3 0.2-0.1 0.3-0.1 0.2-0.1 0.4-0.1z"/><path fill-rule="evenodd" class="m" d="m108.1 61.8l0.4-0.4c0.2 0.2 0.3 0.5 0.3 0.7-0.1 0-0.3 0-0.5 0zm-0.1-0.7l-0.2 0.5h-0.6c-0.1-0.2-0.1-0.3-0.2-0.5q0.5-0.2 1 0zm-1.3 1h-0.6c0.1-0.4 0.2-0.5 0.4-0.7l0.3 0.5c0 0-0.1 0.1-0.1 0.2z"/><path fill-rule="evenodd" class="y" d="m120.5 53.6c0.5 0.2 0.9 0.3 1.6 1.3 0.1 0 0.8 0.4 0.9 1.1-0.4-0.5-0.9-0.7-0.8-0.5 0.6 0.2 0.6 0.8 0.6 1.1-0.2-0.4-0.7-0.8-0.7-0.6 0 0.1 0.6 0.7 0.5 1.3-0.3-0.5-0.6-0.7-0.7-0.7-0.1 0.1 0.2 1.5 0.1 1.5 0 0.5 0.1 0.9 0.2 1 0.2 0.4 1.1 0.9 1.3 0.5 0.5-0.2-0.2-3.8-0.2-3.8 0.1-0.4-0.4-1.4 0.3-2v0.5l0.9-0.6-0.3 0.9 0.4-0.1c-0.3 0.7-0.7 0.5-0.9 1.5 0.2 0.8 0.8 3.4 0.3 3.8-0.4 0.4-0.6 0.6-1.2 0.2-0.1 0.2 0 1.1 0.1 1.2 0.1 0.2 0.6 0.4 0.8 0.4 0.5 0.1 0 0.9-0.6 1.7 0.1 0.3 0.4 1.1-0.2 1.4 0-0.7-0.3-0.7-0.8-0.7 0 0.1-0.3 0-0.5 0.6-0.3-0.4-0.3-0.8 0.1-1-0.3 0-0.7 0-1 0.3 0.1-1.1 1.4-0.7 1.8-1 0.2-0.4-0.3-0.6-0.6-0.6-0.2 0-1-0.8-0.9-1.4 0 0.6-0.5 2-0.9 2.3-0.2 0.4-0.4-0.3-1-0.2-0.6 0-0.6 0.7-0.5 0.8-0.5 0-0.6-0.6-0.3-1 0.1-0.3 0.3-0.4 0.3-0.7-0.4 0.1-0.5 0.4-0.6 0.8-0.3-0.3-0.3-1.3 0.2-1.3-0.2-0.1-0.6 0-0.7 0.2-0.1-0.7 1.5-1.2 1.8-0.5 0.1 0.2 0.5 0.2 0.6 0-0.4-0.7-0.6-1-0.4-1.4 0.2-0.6 1.1 0.3 1.4-0.1-0.1-0.2-0.4-0.4-0.7-0.4-0.7 0-1.2-0.3-1.2-0.8-0.5 0.1-0.2 0.7-0.7 0.7-0.2-0.1-0.2-0.2-0.2-0.3-0.8 0-1 1.2-0.5 1.5-0.4 0-1.4-0.8-0.7-1.4-0.4 0-0.7 0.6-0.8 0.8-0.4-0.8 0-1.2 0.5-1.4-0.2-0.2-0.5-0.1-0.7-0.1 0-0.2 0.5-1.1 1.7-0.2 0-0.3 0.4-0.6 0.6-0.8-0.4-0.7-0.9-0.5-1.4-0.9-0.4-0.2-0.3-1.3-1.2-0.8-0.1-0.6 0.3-0.5 0.7-0.7-0.2 0-0.8-0.1-0.9 0.1 0-0.6 0.7-0.6 0.9-0.6-0.1-0.2-0.4-0.1-0.6-0.1 0.1-0.4 1.3-0.5 1.5-0.1 0.3 0.8 0.3 0.9 0.5 1.1 0.4 0.4 1 1 1.7 0.7 0.1-0.1 0-0.5 0-0.6-0.8 0-1.1-0.2-1.5-0.7-0.1-0.2-0.2-0.3-0.1-0.6 0.4 0.5 0.6 0.9 1.4 0.7-0.2-0.3-0.5-0.4-0.4-0.7 0.9-0.1 1-0.3 1.7-0.6z"/><path class="z" d="m119.5 56.1c-0.4 0.6-0.8 0.9-1.3 1.4"/><path class="z" d="m122 58.2c-0.3-0.8-1-1-1.1-1.1 0 0.2-0.1 1 0.2 1.3-0.8 0.1-1-1-1.1-1.1 0 0.3-0.5 0.7-0.1 1.2-0.3-0.3-1-0.4-0.7-1-0.4 0.1-0.8 0.3-0.9 0.8-0.2-0.3-0.3-0.5 0-0.9"/><path fill-rule="evenodd" class="q" d="m119.4 55.5c0.9-0.3 0.4-0.8-0.2-0.6 0.3 0 0.9 0.2 0.2 0.6z"/><path fill-rule="evenodd" class="A" d="m120.4 54.6c0-0.1-0.7-0.1-0.7-0.2 0.3-0.2 0.5-0.3 0.7 0.2z"/></svg>