<svg width="140" height="40" viewBox="0 0 140 40" fill="none" xmlns="http://www.w3.org/2000/svg">
<path d="M60.3398 6.67383C60.3398 6.77148 60.5579 6.89518 60.9941 7.04492C60.9941 7.27279 61.1471 7.42578 61.4531 7.50391V7.60156L61.3652 7.68945V7.78711C61.6061 7.78711 61.7266 7.84896 61.7266 7.97266L61.6387 8.06055C61.9316 8.06055 62.2995 8.36979 62.7422 8.98828C62.7422 9.23568 59.6009 9.66536 53.3184 10.2773C52.6934 10.2773 52.293 10.7689 52.1172 11.752C52.0391 11.752 51.8568 12.2142 51.5703 13.1387H51.6582L54.0605 12.9629C54.3405 13.3275 54.5553 13.5098 54.7051 13.5098V13.9785L54.8906 14.252V14.3398H54.6172V14.4375H54.7051L55.2617 14.3398L55.8184 14.5254V14.623L55.7207 14.7109V14.8086C56.0918 14.8867 56.2773 14.9779 56.2773 15.082C55.5352 15.6745 53.3802 16.3223 49.8125 17.0254C47.7747 21.0033 46.5736 23.2526 46.209 23.7734C45.7142 23.7734 45.4668 23.8646 45.4668 24.0469H45.3789L45.0957 23.8613L45.1934 23.7734V23.4023H45.0078C45.0078 23.5846 44.946 23.6758 44.8223 23.6758C44.7572 23.3698 44.6009 23.2168 44.3535 23.2168V23.3047C44.3145 23.6172 44.2233 23.7734 44.0801 23.7734L43.9922 23.6758H43.8945L43.709 23.8613L43.3379 23.4023C43.1556 23.4023 43.0645 23.3079 43.0645 23.1191C43.0645 22.0124 44.0182 19.61 45.9258 15.9121C47.7747 12.2142 48.6992 9.65885 48.6992 8.24609C49.1875 7.38021 49.6497 6.94727 50.0859 6.94727L51.5703 7.31836C54.8841 6.88867 57.8073 6.67383 60.3398 6.67383ZM75.8477 6.67383C75.8477 6.77148 76.0658 6.89518 76.502 7.04492C76.502 7.27279 76.6549 7.42578 76.9609 7.50391V7.60156L76.873 7.68945V7.78711C77.1139 7.78711 77.2344 7.84896 77.2344 7.97266L77.1465 8.06055C77.4395 8.06055 77.8073 8.36979 78.25 8.98828C78.25 9.23568 75.1087 9.66536 68.8262 10.2773C68.2012 10.2773 67.8008 10.7689 67.625 11.752C67.5469 11.752 67.3646 12.2142 67.0781 13.1387H67.166L69.5684 12.9629C69.8483 13.3275 70.0632 13.5098 70.2129 13.5098V13.9785L70.3984 14.252V14.3398H70.125V14.4375H70.2129L70.7695 14.3398L71.3262 14.5254V14.623L71.2285 14.7109V14.8086C71.5996 14.8867 71.7852 14.9779 71.7852 15.082C71.043 15.6745 68.888 16.3223 65.3203 17.0254C63.2826 21.0033 62.0814 23.2526 61.7168 23.7734C61.222 23.7734 60.9746 23.8646 60.9746 24.0469H60.8867L60.6035 23.8613L60.7012 23.7734V23.4023H60.5156C60.5156 23.5846 60.4538 23.6758 60.3301 23.6758C60.265 23.3698 60.1087 23.2168 59.8613 23.2168V23.3047C59.8223 23.6172 59.7311 23.7734 59.5879 23.7734L59.5 23.6758H59.4023L59.2168 23.8613L58.8457 23.4023C58.6634 23.4023 58.5723 23.3079 58.5723 23.1191C58.5723 22.0124 59.526 19.61 61.4336 15.9121C63.2826 12.2142 64.207 9.65885 64.207 8.24609C64.6953 7.38021 65.1576 6.94727 65.5938 6.94727L67.0781 7.31836C70.3919 6.88867 73.3151 6.67383 75.8477 6.67383Z" fill="#00FFFF"/>
<path fill-rule="evenodd" clip-rule="evenodd" d="M87.2625 25.1536C87.3364 25.2639 87.3968 25.2974 87.3968 25.2282C87.3968 25.1177 87.7652 25.1317 88.2754 25.2613C88.3413 25.2781 88.5663 25.3349 88.7755 25.3877C88.9848 25.4405 89.1756 25.5312 89.1995 25.5891C89.2236 25.6471 89.3288 25.6945 89.4335 25.6945C89.5381 25.6945 89.6463 25.749 89.6739 25.8156C89.7015 25.8822 89.7534 25.9096 89.7893 25.8764C89.8252 25.8433 89.8987 25.8955 89.9526 25.9924C90.0065 26.0892 90.084 26.1376 90.1249 26.1C90.1658 26.0622 90.2825 26.1128 90.3842 26.2122C90.486 26.3117 90.7719 26.481 91.0196 26.5883C91.2674 26.6958 91.4701 26.8335 91.4701 26.8944C91.4701 26.9553 91.5394 27.0051 91.6242 27.0051C91.7088 27.0051 91.8346 27.0893 91.9037 27.1923C91.9727 27.2953 92.0292 27.3482 92.0292 27.3099C92.0292 27.2062 92.5972 27.5741 92.8346 27.8315C92.9481 27.9545 93.1637 28.1106 93.3138 28.1783C93.7334 28.3674 94.118 28.5997 94.4252 28.8497C94.579 28.9748 94.758 29.0905 94.8231 29.1069C94.8882 29.1233 94.9541 29.1933 94.9695 29.2624C94.9849 29.3314 95.0438 29.388 95.1002 29.388C95.1954 29.388 95.5168 29.6263 96.6744 30.5555C96.923 30.7551 97.1453 30.8904 97.1683 30.8561C97.1913 30.8217 97.3382 30.9395 97.4949 31.1177C97.6515 31.2959 97.7797 31.4059 97.7797 31.3623C97.7797 31.3186 97.9389 31.4463 98.1335 31.646C98.3281 31.8457 98.5383 32.0091 98.6005 32.0091C98.7888 32.0091 99.2085 32.3672 99.3343 32.6351C99.3994 32.7737 99.5333 32.9054 99.6318 32.9278C99.7303 32.9502 99.8959 33.0518 99.9998 33.1533C100.104 33.2548 100.241 33.3078 100.305 33.2712C100.369 33.2345 100.44 33.2751 100.462 33.3614C100.51 33.5498 100.734 33.5723 100.737 33.3892C100.739 33.3182 100.793 33.3643 100.857 33.4914C100.941 33.6572 100.975 33.674 100.976 33.551C100.977 33.4092 100.989 33.4075 101.045 33.541C101.101 33.6717 101.126 33.6732 101.178 33.5488C101.226 33.4333 101.257 33.4523 101.302 33.6254C101.357 33.8355 101.363 33.8368 101.368 33.6403C101.371 33.5218 101.407 33.4557 101.448 33.4933C101.489 33.5311 101.546 33.5052 101.575 33.436C101.603 33.3666 101.705 33.3457 101.8 33.3893C102.035 33.4971 102.038 33.5039 101.937 33.7856C101.855 34.0128 101.796 34.0285 101.231 33.9732C100.652 33.9166 100.267 33.8498 100.176 33.7902C100.154 33.7759 100.029 33.758 99.8977 33.7504C99.701 33.7391 99.6506 33.6745 99.6076 33.3793C99.579 33.1827 99.5514 33.1156 99.5462 33.2303C99.5346 33.4864 99.4389 33.4927 99.1334 33.257C99.0039 33.1571 98.8978 33.103 98.8978 33.1368C98.8978 33.1707 98.7232 33.0381 98.5096 32.8421C98.2961 32.6461 98.0815 32.4857 98.0327 32.4857C97.9118 32.4857 97.0603 31.9185 96.9194 31.744C96.8569 31.6666 96.7347 31.5871 96.6479 31.5673C96.5611 31.5476 96.3727 31.3979 96.2294 31.2347C96.0859 31.0715 95.9498 30.9659 95.927 31C95.889 31.0567 95.077 30.4906 94.9843 30.3428C94.9623 30.3078 94.7467 30.1483 94.5051 29.9886C94.2635 29.8288 93.9849 29.5922 93.8861 29.4627C93.7873 29.3332 93.7064 29.2875 93.7064 29.3612C93.7064 29.4348 93.4289 29.2832 93.0897 29.0245C92.7504 28.7657 92.4426 28.554 92.4057 28.554C92.2951 28.554 91.2746 27.8024 91.2186 27.6797C91.1901 27.6173 91.1078 27.5999 91.0358 27.641C90.9577 27.6858 90.887 27.646 90.8604 27.5424C90.8358 27.4471 90.693 27.3346 90.543 27.2927C90.393 27.2508 90.2506 27.1688 90.2265 27.1108C90.2025 27.0526 90.0932 27.0051 89.9838 27.0051C89.8744 27.0051 89.6879 26.9329 89.5692 26.8447C89.4506 26.7566 89.084 26.5896 88.7546 26.4738C88.4251 26.358 88.1196 26.2301 88.0757 26.1894C88.0318 26.1489 87.8341 26.1047 87.6364 26.0911C87.4387 26.0776 87.0793 26.0387 86.8377 26.0048C86.4247 25.9466 86.3926 25.9615 86.3009 26.2525C86.2472 26.4227 86.2219 26.6069 86.2446 26.662C86.2674 26.7169 86.2483 26.867 86.2023 26.9954C86.1521 27.1352 86.1481 27.2562 86.1923 27.297C86.2329 27.3344 86.2501 27.7441 86.2305 28.2075C86.2109 28.6708 86.2244 29.2199 86.2605 29.4275C86.3257 29.8022 86.288 30.3237 86.1303 31.2302C86.049 31.6974 85.6063 32.4235 85.476 32.3033C85.4404 32.2704 85.393 32.2873 85.3708 32.3409C85.2615 32.6048 83.0839 32.154 83.0839 31.8675C83.0839 31.8143 83.0031 31.7706 82.9042 31.7704C82.8054 31.7701 82.616 31.6712 82.4833 31.5505C82.3507 31.4299 82.1095 31.2939 81.9476 31.2486C81.7856 31.2034 81.5527 31.0881 81.43 30.9927C81.3074 30.8973 81.1765 30.8189 81.1392 30.8184C81.1019 30.818 80.9582 30.7436 80.8198 30.6529C80.6813 30.5624 80.4423 30.418 80.2885 30.3321C80.1348 30.2462 79.9849 30.123 79.9555 30.0584C79.926 29.9937 79.8002 29.9332 79.676 29.9239C79.5516 29.9145 79.3062 29.8039 79.1305 29.6782C78.9548 29.5524 78.7785 29.449 78.7387 29.4485C78.699 29.448 78.6568 29.3488 78.6449 29.2281C78.6199 28.9741 78.5314 28.8045 78.5314 29.0106C78.5314 29.1776 78.3425 29.1917 78.151 29.0392C77.9487 28.8782 77.7151 28.7561 77.5331 28.7166C77.1147 28.6258 76.8484 28.517 76.8086 28.4211C76.7846 28.3631 76.6664 28.3157 76.546 28.3157C76.4256 28.3157 76.293 28.2669 76.2512 28.2074C76.144 28.0542 75.3602 27.7246 75.3037 27.8088C75.2779 27.8473 75.2569 27.8236 75.2569 27.7561C75.2569 27.6872 75.0904 27.6393 74.8775 27.6469C74.4717 27.6613 74.4888 27.6195 74.5737 28.3903C74.5891 28.5295 74.6372 28.744 74.6806 28.8668C74.804 29.216 74.7722 29.7535 74.5987 30.25C74.4269 30.7422 74.315 30.865 73.9258 30.9895C73.7215 31.0549 73.6659 31.0291 73.6356 30.8547C73.602 30.661 73.5972 30.6601 73.5889 30.845C73.5815 31.0108 73.5058 31.0489 73.2002 31.0407C72.9916 31.0351 72.794 31.0423 72.761 31.0565C72.638 31.1098 72.4143 31.0964 72.1819 31.0217C72.0501 30.9794 71.7292 30.9134 71.4688 30.8751C71.2084 30.8368 70.9637 30.7763 70.9251 30.7407C70.8588 30.6795 70.6219 30.6062 70.2651 30.5364C70.1772 30.5191 69.9518 30.4391 69.7641 30.3582C69.5764 30.2774 69.3885 30.2429 69.3465 30.2817C69.3044 30.3205 69.2028 30.2985 69.1206 30.2328C68.9942 30.132 68.3538 29.9688 68.0088 29.9495C67.9539 29.9465 67.909 29.9127 67.9089 29.8744C67.9089 29.8363 67.7562 29.8051 67.5695 29.8053C67.3828 29.8056 67.1942 29.7794 67.1502 29.7471C67.1063 29.7149 66.8907 29.6743 66.671 29.6568C65.5904 29.5709 65.0664 29.524 64.9938 29.5069C64.9499 29.4965 64.8331 29.516 64.7342 29.5502C64.6353 29.5846 64.5545 29.567 64.5545 29.5114C64.5545 29.4558 64.4916 29.4324 64.4148 29.4595C64.3379 29.4865 64.1492 29.5258 63.9954 29.5469C63.6932 29.5884 62.5346 30.3547 62.2845 30.6785C62.1708 30.8258 62.1491 30.8315 62.2008 30.7007C62.2397 30.6024 62.174 30.6375 62.0525 30.7802C61.9324 30.921 61.6918 31.0722 61.5176 31.116C61.3434 31.16 61.1856 31.2327 61.167 31.2777C61.1484 31.3226 60.8876 31.3494 60.5875 31.3372C59.3878 31.2878 58.9166 31.2864 58.7641 31.3313C58.6762 31.3572 58.5145 31.3366 58.4047 31.2854C58.2949 31.2343 57.9894 31.1606 57.7258 31.1214C57.1162 31.031 56.9345 30.9915 56.402 30.8348C56.1637 30.7647 55.8788 30.7072 55.769 30.7071C55.6592 30.707 55.4615 30.6802 55.3297 30.6474C54.3014 30.392 52.5286 30.2594 49.1336 30.1838C48.0977 30.1607 47.2082 30.1031 47.1568 30.0558C47.1054 30.0083 47.0634 30.0134 47.0634 30.0668C47.0634 30.1815 46.4142 30.1715 45.466 30.0422C45.0926 29.9912 44.7153 29.9435 44.6274 29.936C44.5396 29.9286 44.4317 29.8892 44.3878 29.8485C44.3439 29.8077 44.0204 29.7355 43.669 29.6881C43.3176 29.6406 42.9947 29.5695 42.9516 29.5302C42.867 29.4533 42.8506 29.4491 42.1914 29.3358C41.9498 29.2942 41.5545 29.177 41.3129 29.0752C41.0713 28.9733 40.7119 28.8733 40.5142 28.8527C40.3165 28.8319 40.0649 28.7832 39.9551 28.7444C39.7662 28.6773 39.2565 28.5624 38.8605 28.4976C38.7615 28.4814 38.6259 28.4005 38.5591 28.3177C38.4923 28.235 38.4376 28.2173 38.4376 28.2783C38.4376 28.3959 37.9238 28.3909 37.6699 28.2709C37.587 28.2317 37.4162 28.2793 37.2904 28.3768C37.0079 28.5955 37 28.5955 37 28.3752C37 28.277 37.0292 28.1965 37.0649 28.1965C37.1007 28.1965 37.1793 28.0089 37.2396 27.7795C37.3294 27.4382 37.3937 27.359 37.594 27.3427C38.1004 27.3018 39.5681 27.4217 39.8753 27.5292C39.9851 27.5677 40.2726 27.6294 40.5142 27.6663C40.7558 27.7034 41.0433 27.7626 41.1531 27.7979C41.396 27.8759 41.5507 27.9132 42.471 28.1155C42.8663 28.2025 43.2437 28.3071 43.3096 28.3481C43.4316 28.424 44.5107 28.6395 45.3063 28.747C45.5479 28.7796 45.9243 28.8516 46.1427 28.907C46.3613 28.9624 46.6668 28.9873 46.8216 28.9624C46.9766 28.9375 47.7862 28.9177 48.6208 28.9185C49.4554 28.9193 50.2282 28.9177 50.338 28.9152C51.1569 28.8957 52.7844 28.9822 53.6047 29.0888C53.798 29.1139 53.9862 29.2048 54.0228 29.291C54.0777 29.4201 54.0896 29.4201 54.0906 29.2906C54.0913 29.1977 54.1488 29.1585 54.2316 29.1945C54.3084 29.228 54.6948 29.2909 55.0901 29.3342C55.9431 29.4279 56.1248 29.4599 56.8073 29.6369C57.0928 29.7108 57.4074 29.7662 57.5062 29.7598C57.605 29.7534 57.6859 29.79 57.6859 29.8411C57.6859 29.8923 57.7847 29.9365 57.9055 29.9394C58.0263 29.9423 58.4127 29.9855 58.7641 30.0353C59.1155 30.0851 59.439 30.1224 59.4829 30.1181C59.5268 30.1137 59.7604 30.1082 60.002 30.1058C60.2436 30.1034 60.6717 30.0987 60.9534 30.0952C61.2351 30.0917 61.5658 30.0117 61.6882 29.9172C61.8107 29.8227 61.9677 29.7454 62.0372 29.7454C62.1066 29.7454 62.1842 29.665 62.2094 29.5667C62.2348 29.4684 62.3037 29.388 62.3625 29.388C62.4215 29.388 62.5667 29.2539 62.6852 29.0901C62.8036 28.9263 62.9651 28.7922 63.044 28.7922C63.1228 28.7922 63.2114 28.7343 63.2407 28.6635C63.2701 28.5926 63.3724 28.564 63.4682 28.5998C63.5638 28.6357 63.7331 28.5947 63.8441 28.5087C64.1156 28.2985 64.4747 28.1704 64.4747 28.2836C64.4746 28.3731 64.7907 28.3687 65.3532 28.2715C65.5069 28.2449 65.9505 28.294 66.339 28.3806C66.7274 28.4672 67.0958 28.509 67.1577 28.4737C67.2195 28.4383 67.27 28.4571 67.27 28.5156C67.27 28.574 67.4323 28.6128 67.6305 28.6017C67.8287 28.5907 68.0065 28.6193 68.0256 28.6654C68.0447 28.7113 68.2467 28.7617 68.4747 28.7774C68.8661 28.8039 69.0509 28.8511 69.9656 29.1577C70.1743 29.2277 70.4348 29.3015 70.5446 29.3217C70.9045 29.3882 71.3776 29.5207 71.6957 29.6439C72.1612 29.8243 73.4482 29.9353 73.84 29.8288C74.0715 29.7659 74.179 29.5443 74.0715 29.3513C73.9274 29.092 73.8919 27.7749 74.0171 27.328C74.1968 26.6864 74.3675 26.5314 74.8197 26.5989C75.0382 26.6316 75.2708 26.6912 75.3367 26.7313C75.4026 26.7715 75.5643 26.8133 75.6961 26.8242C75.9429 26.8448 76.0667 26.9002 76.5175 27.1925C76.6617 27.286 76.8461 27.3625 76.9271 27.3625C77.0668 27.3625 77.2678 27.4706 77.9524 27.9139C78.1171 28.0206 78.3238 28.1234 78.4116 28.1422C78.4995 28.1611 78.6792 28.2431 78.811 28.3244C78.9428 28.4055 79.0865 28.4776 79.1305 28.4844C79.2599 28.5046 80.1143 29.0134 80.64 29.3836C80.908 29.572 81.2524 29.7645 81.4055 29.811C81.5586 29.8576 81.7608 29.9709 81.8548 30.0629C81.9488 30.1548 82.0932 30.2513 82.1755 30.2775C82.2578 30.3036 82.5807 30.4604 82.893 30.6259C83.6824 31.0441 84.6511 31.4209 84.9497 31.4258C85.0876 31.4281 85.3083 31.3817 85.44 31.3226C85.6554 31.2261 85.6797 31.1661 85.6797 30.7286C85.6797 30.4609 85.7063 30.2021 85.7388 30.1536C85.7714 30.105 85.7602 29.9971 85.7139 29.9139C85.621 29.7469 85.598 27.783 85.6812 27.1242C85.7102 26.8949 85.7307 26.5709 85.7267 26.4044C85.7152 25.9139 86.3142 25.1196 86.7654 25.0274C87.0463 24.97 87.1584 24.9985 87.2625 25.1536Z" fill="#00FFFF"/>
<path d="M86.1214 13.1999C85.3703 13.141 84.5199 13.1362 83.7168 13.271C82.9109 13.4062 82.1901 13.6746 81.6599 14.1302C81.0716 14.6357 80.705 15.3832 80.4927 16.2249C80.2801 17.0626 80.2312 17.9535 80.2447 18.6892C80.2479 19.0466 80.376 19.3913 80.6066 19.663C80.8371 19.9347 81.1555 20.116 81.5059 20.1752C82.2268 20.3031 83.1078 20.3937 83.9648 20.3143C84.8239 20.2337 85.6152 19.9863 86.2035 19.4808C86.7344 19.0253 87.1113 18.3506 87.3702 17.5703C87.6282 16.7934 87.7572 15.9471 87.8168 15.1916C87.8696 14.5231 88.4519 14.0171 89.1188 14.0661C90.2459 14.1491 91.5632 14.1098 92.604 13.7098C92.5822 13.6816 92.5519 13.6613 92.5176 13.6519C91.9309 13.4622 91.3538 13.2438 90.7882 12.9976C90.5188 12.8794 90.2567 12.745 90.0034 12.5949C89.7762 12.4574 89.5535 12.2959 89.395 12.1093C89.2359 11.9219 89.1122 11.6754 89.0127 11.4281C88.9051 11.1527 88.8141 10.8711 88.7402 10.5846C88.5864 9.98379 88.4619 9.37571 88.367 8.76258C88.3631 8.72741 88.3481 8.69442 88.3243 8.66841C87.768 9.64059 87.5245 10.9467 87.4303 12.081C87.4031 12.4033 87.2501 12.7019 87.0049 12.9116C86.7597 13.1213 86.442 13.2249 86.1214 13.1999ZM81.0113 13.3655C81.7295 12.7485 82.6468 12.4309 83.5536 12.2787C84.4646 12.1262 85.4023 12.1338 86.2019 12.1972C86.2586 12.2011 86.3146 12.1825 86.3579 12.1454C86.4012 12.1083 86.4284 12.0557 86.4336 11.9987C86.5317 10.815 86.7917 9.32519 87.4638 8.15625C87.7165 7.71728 88.1782 7.56177 88.5942 7.68925C88.9833 7.80925 89.2829 8.157 89.3542 8.6012C89.4412 9.14284 89.5594 9.77235 89.7065 10.3234C89.7797 10.5989 89.8578 10.8466 89.9395 11.0494C90.0239 11.2592 90.0999 11.3896 90.1556 11.4552C90.2119 11.5208 90.3274 11.6166 90.5202 11.7333C90.7066 11.8462 90.9368 11.9625 91.1952 12.0783C91.7133 12.3099 92.3123 12.5251 92.8305 12.6963C93.2555 12.8366 93.5501 13.1886 93.607 13.5947C93.6677 14.028 93.4428 14.4624 92.9723 14.6448C91.7208 15.1299 90.2207 15.1555 89.0443 15.07C88.9286 15.0609 88.8232 15.1515 88.8139 15.2692C88.7505 16.0728 88.6112 17.0064 88.319 17.8876C88.0269 18.7661 87.5717 19.6278 86.8528 20.2455C86.0492 20.9359 85.0299 21.2246 84.0556 21.3157C83.0773 21.4071 82.0997 21.3029 81.33 21.1658C80.7515 21.0659 80.2262 20.7655 79.8454 20.3166C79.4645 19.8677 79.252 19.2987 79.2447 18.7083C79.2298 17.9227 79.281 16.9351 79.5231 15.9773C79.765 15.0229 80.2078 14.056 81.0113 13.3655ZM81.3097 17.1864C81.2957 17.3638 81.3523 17.5393 81.4671 17.6745C81.5818 17.8096 81.7453 17.8933 81.9216 17.9072C82.0979 17.921 82.2725 17.8638 82.4071 17.7482C82.5416 17.6326 82.6251 17.468 82.6391 17.2907C82.6531 17.1134 82.5965 16.9378 82.4817 16.8027C82.3669 16.6675 82.2034 16.5838 82.0272 16.57C81.8509 16.5562 81.6762 16.6133 81.5417 16.729C81.4071 16.8446 81.3237 17.0091 81.3097 17.1864Z" fill="#00FFFF"/>
</svg>
